<?xml version="1.0" encoding="utf-8"?>
<!-- Generator: Adobe Illustrator 22.1.0, SVG Export Plug-In . SVG Version: 6.00 Build 0)  -->
<svg version="1.1" id="Calque_1" xmlns="http://www.w3.org/2000/svg" xmlns:xlink="http://www.w3.org/1999/xlink" x="0px" y="0px"
	 viewBox="0 0 772 87" style="enable-background:new 0 0 772 87;" xml:space="preserve">
<style type="text/css">
	.st0{fill:url(#SVGID_1_);}
	.st1{fill:url(#SVGID_2_);}
	.st2{fill:url(#SVGID_3_);}
	.st3{fill:url(#SVGID_4_);}
	.st4{fill:url(#SVGID_5_);}
	.st5{fill:url(#SVGID_6_);}
	.st6{fill:url(#SVGID_7_);}
	.st7{fill:url(#SVGID_8_);}
	.st8{fill:url(#SVGID_9_);}
	.st9{fill:url(#SVGID_10_);}
	.st10{fill:url(#SVGID_11_);}
</style>
<g>
	<linearGradient id="SVGID_1_" gradientUnits="userSpaceOnUse" x1="13.064" y1="44.5798" x2="129.7759" y2="44.5798">
		<stop  offset="0" style="stop-color:#00FFFF"/>
		<stop  offset="5.558515e-02" style="stop-color:#05FDFB"/>
		<stop  offset="0.1207" style="stop-color:#13F7EE"/>
		<stop  offset="0.1906" style="stop-color:#2BECD8"/>
		<stop  offset="0.2638" style="stop-color:#4CDEBA"/>
		<stop  offset="0.3398" style="stop-color:#76CB93"/>
		<stop  offset="0.4179" style="stop-color:#AAB564"/>
		<stop  offset="0.4964" style="stop-color:#E69A2E"/>
		<stop  offset="0.517" style="stop-color:#F7931E"/>
		<stop  offset="0.7886" style="stop-color:#FB420D"/>
		<stop  offset="1" style="stop-color:#FF0000"/>
	</linearGradient>
	<path class="st0" d="M129.8,31.3c0,4.6-2,8.8-6,12.6c-3.5,3.2-7.5,5.5-12,6.8c4.5,10.8,7.9,17.3,10.2,19.5c0.2,0.2,0.3,0.4,0.2,0.6
		c-0.1,0.2-0.3,0.3-0.6,0.3L97.8,71c-0.3,0-0.5-0.1-0.6-0.3c-0.1-0.2,0-0.5,0.2-0.6c0.4-0.3,0.9-0.7,1.3-1c0.4-0.4,0.6-0.8,0.6-1.2
		c0-2.5-1.4-6.3-4.3-11.2c-1.8,4.7-2.7,8.4-2.7,11.2c0,0.5,0.3,1.4,0.8,2.7c0.2,0.5,0,0.7-0.5,0.7l-23.3,0.3c-0.3,0-0.5-0.1-0.6-0.4
		c-0.1-0.2,0-0.4,0.2-0.6c0.6-0.5,1.2-1.1,1.8-1.8c1.2-1.5,2.1-3.1,2.7-4.8c-1.3-0.4-2.3-0.6-3-0.6c-1.6,0-3.7,0.7-6.3,2
		c-4.4,2.3-6.7,3.5-6.8,3.5c-2.8,1.2-5.5,1.8-8,1.6c-0.3,0-0.5-0.2-0.4-0.5c0-0.3,0.2-0.5,0.5-0.5c1.9,0,3.9-0.5,6-1.4
		c2.4-1.2,3.5-2.5,3.5-4.2c0-0.4-0.2-0.8-0.6-1.2c-0.4-0.3-0.9-0.5-1.3-0.5c-1.4,0-3.5,0.5-6.2,1.6c-2.7,1.1-5,1.6-6.7,1.6
		c-1.7,0-3.9-0.4-6.5-1.3c-2.6-0.9-4.8-1.3-6.5-1.3c-1,0-1.9,0.1-2.8,0.3c-0.3,0-0.6-0.1-0.6-0.4c-0.1-0.3,0-0.6,0.4-0.6
		c2.4-0.7,5.7-1.1,10.1-1.1c4,0,7.5-0.6,10.6-1.7c2.3-1,4.6-2,7-3.1c2.6-1.1,5.3-1.7,8-1.7c0.4,0,1.2,0,2.2,0.1c1,0,1.8,0.1,2.3,0.1
		c3,0,4.5-0.8,4.5-2.5c0-1.8-2.1-2.7-6.3-2.7c-3,0-6.8,0.8-11.4,2.4c-4.6,1.6-8.4,2.4-11.5,2.4c-2.7,0-6.2-0.7-10.4-2
		c-4.2-1.3-7.7-2-10.5-2c-2.3,0-5.1,0.6-8.4,1.9c-0.5,0.2-0.8,0-0.8-0.5c0-0.2,0.1-0.4,0.4-0.5c3-1.6,5.4-2.7,7-3.2
		c2.3-0.8,4.7-1.2,7.4-1.2c1.3,0,3,0.1,5.2,0.2c2.2,0.1,3.9,0.2,5.3,0.2c5.5,0,8.3-1.1,8.3-3.2c0-1.8-1.8-2.7-5.5-2.7
		c-1.2,0-2.6,0.1-4.3,0.3c-1.7,0.2-3.1,0.3-4.2,0.3c-3,0-6.6-0.7-10.9-2.2c-0.3-0.1-0.5-0.4-0.4-0.7c0.1-0.3,0.3-0.4,0.6-0.3
		c2.2,0.8,3.8,1.2,4.9,1.2c2.2,0,5.3-0.8,9.4-2.5c4.1-1.7,7.4-2.5,10-2.5c3.1,0,7,0.8,11.7,2.4c4.7,1.6,8.6,2.4,11.6,2.4
		c2.4,0,4-0.1,4.8-0.2c1.7-0.3,2.6-1.1,2.6-2.3c0-1.2-0.8-2.1-2.4-2.4c-0.8-0.1-2.3-0.2-4.5-0.2c-2.6,0-5.8-0.9-9.5-2.8
		c-3.8-1.9-6.9-2.8-9.5-2.8c-2.5,0-4.5,0.1-5.9,0.4c-0.3,0-0.6-0.1-0.6-0.4c-0.1-0.3,0-0.5,0.4-0.6c4-1.1,7.3-1.7,9.9-1.7
		c1.8,0,4,0.2,6.8,0.7c2.7,0.5,4.9,0.7,6.5,0.7c4.4,0,6.6-1,6.6-3c0-2.5-2.3-3.7-6.8-3.7c-0.9,0-2,0.1-3.4,0.4
		c-1.4,0.2-2.5,0.4-3.5,0.4c-1.9,0-3.5-0.2-4.8-0.5c-0.3-0.1-0.5-0.3-0.4-0.6c0-0.3,0.2-0.5,0.6-0.4c0.1,0,0.4,0.1,0.8,0.2
		c0.5,0.1,0.8,0.2,1.1,0.2c1.8,0,3.9-0.5,6.4-1.5c2.5-1,4.6-1.5,6.4-1.5c1.8,0,5.4,0.5,10.8,1.4c5.4,1,12,1.4,20,1.4
		c9.2,0,15.3,0.3,18.3,1C126.6,23,129.8,26.2,129.8,31.3z M40.5,30c-2.4,1.1-4.7,1.6-6.7,1.7c-1.3,0-3-0.4-5-1.5
		c-2-1-3.9-1.5-5.4-1.5c-0.6,0-1.5,0.1-2.7,0.3c-0.3,0.1-0.5,0-0.6-0.3c-0.1-0.2-0.1-0.4,0.1-0.6c2.5-1.2,5-1.9,7.4-2
		c1.1,0,2.8,0.5,5.1,1.6c2.3,1.1,3.9,1.7,4.7,1.6c0.6,0,1.6-0.1,2.8-0.2c0.2,0,0.4,0,0.5,0.3C40.8,29.7,40.7,29.9,40.5,30z
		 M108.5,34.8c0-1.5-1.5-2.3-4.5-2.3c-0.8,0-1.7,0-2.7,0.1l-2.2,7.7C105.4,40.1,108.5,38.3,108.5,34.8z"/>
	<linearGradient id="SVGID_2_" gradientUnits="userSpaceOnUse" x1="117.8598" y1="52.6799" x2="171.7515" y2="52.6799">
		<stop  offset="0" style="stop-color:#00FFFF"/>
		<stop  offset="5.558515e-02" style="stop-color:#05FDFB"/>
		<stop  offset="0.1207" style="stop-color:#13F7EE"/>
		<stop  offset="0.1906" style="stop-color:#2BECD8"/>
		<stop  offset="0.2638" style="stop-color:#4CDEBA"/>
		<stop  offset="0.3398" style="stop-color:#76CB93"/>
		<stop  offset="0.4179" style="stop-color:#AAB564"/>
		<stop  offset="0.4964" style="stop-color:#E69A2E"/>
		<stop  offset="0.517" style="stop-color:#F7931E"/>
		<stop  offset="0.7886" style="stop-color:#FB420D"/>
		<stop  offset="1" style="stop-color:#FF0000"/>
	</linearGradient>
	<path class="st1" d="M171.8,46.2c0,2.2-0.3,5.2-0.9,9c-0.1,0.3-0.3,0.5-0.5,0.5h-23c0,1.6,0.6,2.9,1.9,3.7c1.2,0.7,2.6,1.1,4.2,1.1
		c4.4,0,7.9-1,10.6-3.1c0.3-0.2,0.5-0.3,0.7-0.1c0.2,0.2,0.2,0.5,0.1,0.8c-0.7,1.4-1.3,4.8-1.9,10.2c0,0.2-0.1,0.3-0.2,0.4
		c-3.6,2.8-8.3,4.2-14,4.2c-9.2,0-14.8-2.9-16.6-8.6c-3.3,0.4-6,0.2-8.1-0.5c-0.3-0.1-0.5-0.3-0.5-0.6c0-0.2,0.2-0.4,0.5-0.4
		c1.4-0.3,2.7-0.8,3.9-1.6c1.4-1,2.2-2.2,2.2-3.5c0-1.4-0.8-2.4-2.3-3c-0.7-0.2-2.3-0.5-4.9-0.8c-2.2-0.3-3.7-0.7-4.6-1.3
		c-0.3-0.2-0.4-0.4-0.3-0.6c0.1-0.2,0.3-0.3,0.6-0.3c0.7,0.1,1.3,0.2,1.9,0.2c1,0,2.2-0.3,3.7-0.9c1.5-0.6,2.8-0.9,3.8-0.9
		c0.9,0,2,0.2,3.5,0.6c0.6-1.5,1.7-3.5,3.3-6c-3.1,0-5.4-0.3-6.8-0.9c-0.2-0.1-0.4-0.3-0.4-0.5c0-0.6,0.3-0.7,0.8-0.5
		c0.3,0.1,0.7,0.2,1.2,0.2c0.8,0,1.6-0.2,2.3-0.6c0.7-0.4,1-0.9,0.9-1.6c-0.1-1.2-1.3-1.9-3.4-1.9c-0.4,0-0.9,0-1.6,0.1
		c-0.7,0.1-1.2,0.1-1.7,0.1c-0.6,0-1.8-0.1-3.5-0.4c-0.3,0-0.5-0.2-0.4-0.6c0-0.3,0.2-0.5,0.6-0.4c1.3,0.2,2.9-0.1,4.9-0.8
		c2-0.7,3.6-1,4.7-1c0.8,0,1.9,0.3,3.3,1c1.4,0.7,2.7,1.1,4,1.3c7.4-4.1,13.4-6.1,17.9-6.1c4,0,7.3,1.2,9.9,3.6
		C170.3,38.5,171.8,42,171.8,46.2z M159.4,45.9c0-0.9-0.2-1.6-0.7-2.3c-0.5-0.6-1.1-1-1.9-1c-2.2,0-4.6,1.6-7.1,4.8l9.1,0.1
		C159.3,46.9,159.4,46.3,159.4,45.9z"/>
	<linearGradient id="SVGID_3_" gradientUnits="userSpaceOnUse" x1="164.7348" y1="52.0737" x2="226.1108" y2="52.0737">
		<stop  offset="0" style="stop-color:#00FFFF"/>
		<stop  offset="5.558515e-02" style="stop-color:#05FDFB"/>
		<stop  offset="0.1207" style="stop-color:#13F7EE"/>
		<stop  offset="0.1906" style="stop-color:#2BECD8"/>
		<stop  offset="0.2638" style="stop-color:#4CDEBA"/>
		<stop  offset="0.3398" style="stop-color:#76CB93"/>
		<stop  offset="0.4179" style="stop-color:#AAB564"/>
		<stop  offset="0.4964" style="stop-color:#E69A2E"/>
		<stop  offset="0.517" style="stop-color:#F7931E"/>
		<stop  offset="0.7886" style="stop-color:#FB420D"/>
		<stop  offset="1" style="stop-color:#FF0000"/>
	</linearGradient>
	<path class="st2" d="M226.1,39.2c0,3.7-1.4,9-4.2,16.1c-3.1,7.6-4.8,12.8-5.2,15.4c0,0.3-0.2,0.4-0.5,0.4l-17.9,0.3
		c-0.3,0-0.5-0.1-0.6-0.3c0-0.1,0-0.3,0.2-0.6c1.2-1.3,3-5.2,5.3-11.7c2.2-6,3.3-9.6,3.3-10.6c0-1.1-0.3-1.6-0.8-1.6
		c-2,0-4.3,3.2-6.9,9.7c-0.8,2.1-2.5,6.9-5,14.5c-0.1,0.2-0.3,0.4-0.6,0.4c-4.1-0.1-7.3-0.2-9.6-0.2c-2.3,0-5.1,0.2-8.4,0.6
		c-0.3,0-0.5,0-0.6-0.3c-0.1-0.2,0-0.5,0.3-0.7c0.3-0.2,0.7-0.5,1-0.8c0.7-0.7,1.2-1.5,1.3-2.3c-0.9-0.7-1.5-1.1-2-1.1
		c-0.5,0-1.1,0-1.9,0.1c-0.8,0.1-1.4,0.1-1.9,0.1c-1.7,0-3.9-0.5-6.4-1.4c-0.3-0.1-0.5-0.4-0.4-0.6c0-0.3,0.3-0.5,0.6-0.4
		c0.9,0.2,1.9,0.4,3.2,0.4c1.3,0,2.9-0.5,4.8-1.6c1.8-1.1,3.8-1.7,5.9-1.8l1.9-4.5c-1.1-1.1-2.3-1.7-3.7-1.9
		c-1.9-0.1-3.3-0.4-4.1-0.8c-0.3-0.1-0.4-0.3-0.4-0.5c0-0.2,0.2-0.4,0.5-0.4c1.8-0.3,3.5-0.8,4.9-1.4c1.8-0.8,3.6-1.4,5.2-1.9
		l1.7-4.5c-0.9-0.6-1.8-0.9-2.5-0.9c-1,0-2.2,0.2-3.8,0.6c-1.6,0.4-2.8,0.6-3.8,0.6c-1.8,0-3.6-0.3-5.5-0.9
		c-0.3-0.1-0.5-0.3-0.4-0.6c0.1-0.3,0.4-0.5,0.7-0.4c0.8,0.2,1.6,0.4,2.6,0.4c2.8,0,4.2-0.8,4.2-2.4c0-0.5-0.4-0.7-1.3-0.7
		c-0.1,0-0.5,0-1,0c-0.5,0-0.9,0.1-1.2,0.1c-2,0-3.9-0.3-5.8-0.9c-0.3-0.1-0.5-0.3-0.4-0.6c0.1-0.3,0.3-0.4,0.6-0.4
		c0.7,0.1,1.4,0.2,2.2,0.2c1.2,0,2.8-0.5,4.5-1.4c1.8-0.9,3.3-1.4,4.5-1.4c1,0,2.3,0.3,3.7,1c1.5,0.6,2.7,1,3.7,1
		c0.6,0,1.2,0,1.6-0.1l1.8-4.8c0-0.2,0.2-0.3,0.5-0.3l16.3-0.2c0.2,0,0.4,0.1,0.5,0.2c0.1,0.1,0.1,0.3,0,0.5l-1.2,3
		c3.6-1.6,5.9-2.6,6.8-3c2.7-0.9,5.2-1.4,7.5-1.4c1.4,0,2.7,0.7,3.9,2.1C225.5,35.9,226.1,37.5,226.1,39.2z"/>
	<linearGradient id="SVGID_4_" gradientUnits="userSpaceOnUse" x1="224.0588" y1="46.7759" x2="272.0286" y2="46.7759">
		<stop  offset="0" style="stop-color:#00FFFF"/>
		<stop  offset="5.558515e-02" style="stop-color:#05FDFB"/>
		<stop  offset="0.1207" style="stop-color:#13F7EE"/>
		<stop  offset="0.1906" style="stop-color:#2BECD8"/>
		<stop  offset="0.2638" style="stop-color:#4CDEBA"/>
		<stop  offset="0.3398" style="stop-color:#76CB93"/>
		<stop  offset="0.4179" style="stop-color:#AAB564"/>
		<stop  offset="0.4964" style="stop-color:#E69A2E"/>
		<stop  offset="0.517" style="stop-color:#F7931E"/>
		<stop  offset="0.7886" style="stop-color:#FB420D"/>
		<stop  offset="1" style="stop-color:#FF0000"/>
	</linearGradient>
	<path class="st3" d="M272,32.1l-6.3,14.1c-0.1,0.2-0.2,0.4-0.4,0.4h-5.1c-1.8,2.7-2.7,5.3-2.7,7.8c0,0.5,0.2,1,0.7,1.4
		c0.5,0.4,1,0.6,1.6,0.6c1.6,0,3.1-0.3,4.5-0.9c0.3-0.1,0.5-0.1,0.6,0s0.2,0.4,0.1,0.6l-5.6,13.7l-0.3,0.3
		c-4.4,1.8-8.2,2.7-11.6,2.7c-6.2,0-9.6-2.1-10.2-6.4c-2.4-1.4-4.7-2-6.8-1.7c-0.3,0-0.6,0-0.6-0.3c-0.1-0.2,0-0.5,0.3-0.6
		c0.7-0.5,2.3-1.1,4.8-1.9c1.7-0.6,2.5-1.3,2.5-2.2c0-1.2-0.7-1.9-2.1-2.3c-0.7-0.2-2.1-0.3-4-0.3c-0.5,0-1.1,0-1.9,0.1
		c-0.8,0.1-1.5,0.1-2,0.1c-0.3,0-1.4-0.4-3.1-1.2c-0.3-0.2-0.4-0.4-0.3-0.7c0.1-0.2,0.3-0.3,0.6-0.3c0.9,0.2,1.5,0.3,1.9,0.3
		c1.7,0,3.8-0.7,6.3-2.1c2.5-1.4,4.8-2,6.8-1.8l1.7-4.3h-4.8c-0.5,0-0.6-0.2-0.5-0.7l1.9-6.3c-2.5-1.1-5.6-1.6-9.2-1.6
		c-0.7,0-1.3,0.1-2,0.2c-0.3,0-0.6,0-0.6-0.3c-0.1-0.3,0-0.5,0.3-0.7c1.5-0.8,3.7-1.3,6.6-1.5c2.1-0.2,3.1-0.7,3.1-1.5
		c0-0.4-0.8-0.8-2.4-1.4c-1.8-0.6-3-1.3-3.4-1.9c-0.2-0.2-0.2-0.5-0.1-0.6c0.1-0.2,0.3-0.2,0.6-0.1c0.6,0.2,1.1,0.3,1.5,0.3
		c0.5,0,1.1,0,1.8-0.1c0.7-0.1,1.3-0.1,1.7-0.1c0.7,0,1.6,0.3,2.7,0.8c1.1,0.5,1.9,0.8,2.6,0.8h5.8l2.2-5c-0.4-0.3-1-0.4-1.8-0.4
		c-0.2,0-0.6,0-1.1,0.1c-0.5,0-0.9,0-1.2,0c-1,0-1.8-0.2-2.5-0.5c-0.2-0.2-0.3-0.4-0.3-0.6c0-0.2,0.2-0.4,0.5-0.4
		c0.7-0.1,2-0.6,4-1.4c1.5-0.6,3-0.9,4.3-0.8l0.7-1.9c0.1-0.2,0.3-0.3,0.5-0.3l16.1,0.1c0.5,0,0.7,0.2,0.5,0.7l-3.8,9.4l6.5,0.2
		C272,31.3,272.1,31.6,272,32.1z"/>
	<linearGradient id="SVGID_5_" gradientUnits="userSpaceOnUse" x1="291.7017" y1="45.0366" x2="408.1255" y2="45.0366">
		<stop  offset="0" style="stop-color:#00FFFF"/>
		<stop  offset="5.558515e-02" style="stop-color:#05FDFB"/>
		<stop  offset="0.1207" style="stop-color:#13F7EE"/>
		<stop  offset="0.1906" style="stop-color:#2BECD8"/>
		<stop  offset="0.2638" style="stop-color:#4CDEBA"/>
		<stop  offset="0.3398" style="stop-color:#76CB93"/>
		<stop  offset="0.4179" style="stop-color:#AAB564"/>
		<stop  offset="0.4964" style="stop-color:#E69A2E"/>
		<stop  offset="0.517" style="stop-color:#F7931E"/>
		<stop  offset="0.7886" style="stop-color:#FB420D"/>
		<stop  offset="1" style="stop-color:#FF0000"/>
	</linearGradient>
	<path class="st4" d="M407.7,71.3c0.3,0,0.4,0.2,0.4,0.5c0,0.5-0.2,0.6-0.7,0.5c-2.3-0.6-5.7-1-10.3-1.2c-1.4,0-5.9-0.1-13.3-0.1
		c-2.8,0-6.6,0.2-11.6,0.5c-0.4,0-0.6-0.1-0.6-0.4c0-0.3,0.2-0.5,0.5-0.6c3.3-0.3,5.5-0.7,6.6-1.2c3.7-1.4,5.5-4.1,5.4-7.9h-15.3
		l-2.2,2.9c-0.8,1.2-1.2,2.3-1.2,3.3c0,0.9,0.4,1.8,1.2,2.6c0.2,0.2,0.3,0.5,0.2,0.6c-0.1,0.2-0.3,0.3-0.6,0.3L337,71.4
		c-0.4,0-0.6-0.1-0.6-0.4c0-0.3,0.1-0.6,0.4-0.6c5.9-1.4,8.9-3.2,8.9-5.3c-0.7,0.7-1.6,1.1-2.7,1.1c-1.8,0-4-0.7-6.4-2.1
		c-2.4-1.4-4.6-2.1-6.5-2.1c-1.7,0-3.4,0.4-5.1,1.2c-0.3,0.1-0.5,0.1-0.6-0.1c-0.2-0.2-0.2-0.4,0-0.6c0.9-1.2,4.3-2.3,10.4-3
		c5.7-0.7,8.5-1.7,8.5-2.9c0-0.8-0.6-1.5-1.7-2c-1.1-0.5-2.3-0.8-3.6-0.8c-1.9,0-4.2,0.5-7.1,1.5c-2.9,1-5.2,1.5-7.2,1.5
		c-2.6,0-5.8-0.9-9.5-2.7c-3.7-1.8-6.9-2.7-9.4-2.7c-1.5,0-3,0.5-4.5,1.4c-0.1,0-0.2,0.1-0.3,0.1c-0.4,0-0.6-0.2-0.6-0.5
		c0-0.2,0.1-0.3,0.2-0.4c2.1-1.7,4.9-2.5,8.5-2.5c1.9,0,4.3,0.3,7.2,0.8c2.9,0.5,5.2,0.8,6.9,0.8c0.9,0,1.7-0.3,2.5-0.8
		c0.8-0.5,1.2-1.2,1.2-2c0-4.1-4.7-6.2-14.2-6.2c-1.1,0-2.7,0-4.9,0.1c-2.2,0.1-3.7,0.1-4.8,0.1c-4.9,0-8.3-0.9-10.3-2.6
		c-0.1-0.1-0.1-0.2-0.1-0.3c0-0.4,0.2-0.6,0.6-0.6c0.1,0,0.3,0.1,0.4,0.2c0.4,0.6,1.5,1.2,3.2,1.6c1.7,0.5,3.4,0.7,5,0.7
		c1.9,0,5-0.7,9.2-2.2c4.2-1.4,7.7-2.2,10.5-2.2c3.6,0,8,1,13.4,3c5.4,2,9.8,3,13.4,3c1.9,0,3.5-0.3,4.9-0.9
		c1.7-0.7,2.5-1.7,2.5-2.8c0-1.2-1.7-1.9-5-1.9c-0.8,0-2,0.1-3.5,0.4c-1.5,0.2-2.8,0.4-3.9,0.4c-3.5,0-7.7-1.6-12.7-4.7
		c-5-3.1-9.2-4.7-12.6-4.7c-1.4,0-3.3,0.5-5.6,1.4c-0.3,0.1-0.6,0-0.6-0.3c-0.1-0.3,0-0.5,0.3-0.6c4.3-2.1,8.6-3.1,12.7-3.1
		c2.4,0,5.4,0.7,9,2.2c3.7,1.5,6.5,2.2,8.5,2.2c0.7,0,1.3-0.2,1.9-0.6c0.6-0.4,0.9-0.9,0.9-1.3c0-1.6-1.7-3.6-5.1-5.8
		c-3.6-2.3-6.9-3.5-9.9-3.5c-1.5,0-2.6,0.1-3.2,0.3c-0.3,0.1-0.6,0-0.6-0.3c-0.1-0.4,0-0.6,0.3-0.7c1.7-0.6,3.6-0.9,5.5-0.9
		c3.9,0,8.1,0.8,12.6,2.5c0.9,0.3,4.4,1.9,10.7,4.8c3.7,1.7,6.5,2.5,8.5,2.5c1,0,1.8-0.3,2.6-0.8s1.2-1.2,1.2-2.1
		c0-1-0.8-1.8-2.3-2.4c-1.2-0.5-2.4-0.7-3.5-0.7c-1.2,0-2.5,0.3-4,1c-0.5,0.2-0.8,0.1-0.8-0.5c0-0.2,0.1-0.4,0.4-0.5
		c6-2.3,11.4-3.5,15.9-3.5c2.7,0,6.3,0.6,10.6,1.7c4.3,1.1,7.9,1.7,10.9,1.7c4,0,7.5-1.1,10.5-3.2c0.3-0.2,0.5-0.2,0.7,0
		c0.2,0.2,0.2,0.4,0,0.7c-2.6,3.9-3.9,9.5-3.9,16.8c0,13.3,0.1,21.3,0.4,23.9C402.4,66.8,404.4,70.6,407.7,71.3z M384.4,39.3v-3.8
		l-8.7,14h7.9v-2.1c0-1-0.6-1.4-1.7-1.4c-0.6,0-1.1,0.1-1.6,0.4c-0.2,0.1-0.4,0.1-0.6-0.1c-0.1-0.2-0.1-0.4,0.1-0.6
		c1-0.8,1.9-1.6,2.8-2.4C383.8,42,384.4,40.7,384.4,39.3z"/>
	<linearGradient id="SVGID_6_" gradientUnits="userSpaceOnUse" x1="432.069" y1="44.9397" x2="550.252" y2="44.9397">
		<stop  offset="0" style="stop-color:#00FFFF"/>
		<stop  offset="5.558515e-02" style="stop-color:#05FDFB"/>
		<stop  offset="0.1207" style="stop-color:#13F7EE"/>
		<stop  offset="0.1906" style="stop-color:#2BECD8"/>
		<stop  offset="0.2638" style="stop-color:#4CDEBA"/>
		<stop  offset="0.3398" style="stop-color:#76CB93"/>
		<stop  offset="0.4179" style="stop-color:#AAB564"/>
		<stop  offset="0.4964" style="stop-color:#E69A2E"/>
		<stop  offset="0.517" style="stop-color:#F7931E"/>
		<stop  offset="0.7886" style="stop-color:#FB420D"/>
		<stop  offset="1" style="stop-color:#FF0000"/>
	</linearGradient>
	<path class="st5" d="M550.3,29.9c0,5.5-4,10.4-12.1,14.6c5.2,2.6,7.8,6.4,7.8,11.5c0,4.7-2.1,8.4-6.3,11.2
		c-3.9,2.5-8.6,3.8-14.1,3.9l-34.3,0.2c-0.3,0-0.5-0.1-0.5-0.4c0-0.3,0.1-0.5,0.4-0.6c1.6-0.3,3-2,4.1-5.2c-1.5,0.2-3.4,1.2-5.8,3
		c-2.3,1.5-4.1,2.3-5.5,2.3c-1.2,0-2.6-0.3-4.3-0.8c-1.7-0.5-3.1-0.8-4.2-0.8c-0.8,0-1.7,0.3-2.7,0.8c-0.5,0.2-0.7,0-0.7-0.6
		c0-0.2,0.1-0.4,0.4-0.5c1.8-0.7,3.5-1.1,5-1.1c4.1,0,6.2-1,6.2-3.1c0-0.9-0.6-1.6-1.7-2.2c-0.9-0.4-1.8-0.6-3-0.6
		c-1.9,0-4.2,0.5-7.1,1.5c-2.9,1-5.2,1.5-7.1,1.5c-3,0-6.6-0.8-10.7-2.4c-0.2-0.1-0.4-0.3-0.4-0.5c0-0.5,0.2-0.7,0.7-0.6
		c1.5,0.5,3.4,0.7,5.5,0.7c3.2,0,7.1-1.3,11.8-3.9c4.6-2.6,8.6-3.9,11.8-3.9c0.8,0,1.8,0.1,3,0.2c1.2,0.1,2.2,0.2,3,0.2
		c2.6,0,4-0.7,4-2c0-2.4-2.5-3.6-7.5-3.6c-3.2,0-7.5,1-12.7,3.1c-5.3,2-9.7,3.1-13.2,3.1c-2.7,0-6.1-0.7-10.1-2.1
		c-4.1-1.4-7.4-2.1-10.1-2.1c-1.6,0-4,0.5-7.1,1.6c-0.3,0.1-0.6,0-0.6-0.3c-0.1-0.3,0-0.6,0.4-0.7c6-2.2,11.9-3.2,17.6-3.2
		c1.2,0,2.6,0.1,4.3,0.3c1.7,0.2,3.1,0.3,4.2,0.3c5.5,0,8.2-1.5,8.2-4.6c0-1.3-0.7-2.4-2.1-3.1c-1.2-0.6-2.6-0.9-4.2-0.9
		c-1.7,0-3.8,0.3-6.4,1c-2.6,0.7-4.7,1-6.4,1c-2.3,0-5-0.7-8.1-2.2c-0.3-0.1-0.4-0.4-0.3-0.7c0.1-0.3,0.3-0.4,0.6-0.3
		c2.7,1,4.7,1.5,5.9,1.5c1.9,0,5.1-0.9,9.6-2.8c4.5-1.9,8.3-2.8,11.2-2.8c2.9,0,6.6,0.8,11.1,2.3c4.4,1.5,8.1,2.3,11,2.3
		c4.2,0,6.7-0.1,7.6-0.2c2.7-0.4,4.1-1.4,4.1-3.2c0-1.4-1.1-2.2-3.3-2.2c-0.8,0-1.9,0.1-3.3,0.4c-1.4,0.3-2.5,0.4-3.3,0.4
		c-2.7,0-6.1-1.1-10-3.2c-4-2.2-7.3-3.2-10-3.2c-1.7,0-3.2,0.1-4.3,0.2c-0.3,0-0.5-0.1-0.6-0.4c-0.1-0.3,0-0.5,0.4-0.6
		c3.1-0.7,5.2-1.1,6.3-1.1c2.2,0,4.9,0.3,8.3,0.9c3.4,0.6,6.2,0.9,8.3,0.9c4.3,0,6.4-1,6.4-2.9c0-2.7-2.7-4.1-8.1-4.1
		c-0.9,0-2,0-3.3,0.1c-1.3,0.1-2.4,0.1-3.3,0.1c-0.3,0-1.2-0.1-2.7-0.3c-0.3,0-0.5-0.2-0.5-0.5c0-0.3,0.2-0.5,0.5-0.5
		c6-1.1,11.8-1.6,17.3-1.6c2.5,0,5.7,0.2,9.5,0.6c3.8,0.4,7,0.6,9.4,0.6h17.8c6-0.1,10.4,0.6,13.3,1.9
		C548.5,23.3,550.3,26.1,550.3,29.9z M462,29.2c-2.4,1.1-4.7,1.6-6.7,1.7c-1.3,0-3-0.4-5-1.5c-2-1-3.9-1.5-5.4-1.5
		c-0.6,0-1.5,0.1-2.7,0.3c-0.3,0.1-0.5,0-0.6-0.3c-0.1-0.2-0.1-0.4,0.1-0.6c2.5-1.2,5-1.9,7.4-2c1.1,0,2.8,0.5,5.1,1.6
		c2.3,1.1,3.9,1.7,4.7,1.6c0.6,0,1.6-0.1,2.8-0.2c0.2,0,0.4,0,0.5,0.3C462.3,28.9,462.2,29.1,462,29.2z M525.9,52.5
		c0-2.2-2.4-3.1-7.3-2.9l-4,10.4h4.8c2.4,0,3.6-0.6,3.6-1.7c0-1.1-0.6-1.7-1.8-1.7c-0.7,0-1.2,0.1-1.7,0.4c-0.3,0.1-0.6,0.1-0.8-0.1
		c-0.1-0.2-0.1-0.5,0.1-0.7c0.7-0.6,2.1-1.2,4.4-1.7C525.1,54.1,525.9,53.4,525.9,52.5z M531.5,35.1c0-2.6-2.1-4-6.4-4.2l-3.1,9.1
		c2.9,0,4.9-0.3,6.1-0.6C530.4,38.7,531.5,37.3,531.5,35.1z"/>
	<linearGradient id="SVGID_7_" gradientUnits="userSpaceOnUse" x1="541.0997" y1="52.9678" x2="599.7168" y2="52.9678">
		<stop  offset="0" style="stop-color:#00FFFF"/>
		<stop  offset="5.558515e-02" style="stop-color:#05FDFB"/>
		<stop  offset="0.1207" style="stop-color:#13F7EE"/>
		<stop  offset="0.1906" style="stop-color:#2BECD8"/>
		<stop  offset="0.2638" style="stop-color:#4CDEBA"/>
		<stop  offset="0.3398" style="stop-color:#76CB93"/>
		<stop  offset="0.4179" style="stop-color:#AAB564"/>
		<stop  offset="0.4964" style="stop-color:#E69A2E"/>
		<stop  offset="0.517" style="stop-color:#F7931E"/>
		<stop  offset="0.7886" style="stop-color:#FB420D"/>
		<stop  offset="1" style="stop-color:#FF0000"/>
	</linearGradient>
	<path class="st6" d="M599.7,45.9c0,7.2-3.1,13.6-9.3,19.2c-6.2,5.6-13.2,8.4-20.9,8.4c-6.1,0-10.8-3-14-9.1
		c-0.1-0.2-0.6-0.4-1.4-0.4c-0.5,0-1.6,0.3-3.3,1s-3,1-4,1c-0.4,0-0.9-0.1-1.4-0.2c-0.8-0.2-1.3-0.4-1.5-0.4c-0.2,0-0.4-0.2-0.4-0.5
		c0-0.5,0.2-0.7,0.7-0.5c0.3,0.1,0.6,0.1,1.1,0.1c1.1,0,2.1-0.2,3.1-0.7c1.2-0.6,1.7-1.3,1.7-2.2c0-0.6-0.3-1.1-0.9-1.5
		c-0.6-0.4-1.2-0.6-1.9-0.6c-0.6,0-1.6,0.1-2.9,0.3c-1.1,0.1-2,0.2-2.9,0.1c-0.3,0-0.5-0.2-0.4-0.6c0-0.3,0.2-0.5,0.6-0.4
		c0.8,0.1,2.3-0.3,4.4-1.3s4.1-1.4,5.9-1.4c0.8,0,1.7,0.1,2.5,0.2c0.2-1,0.6-2,1.2-3.2c-1.1-1.2-3.2-1.8-6.3-1.9
		c-3.2-0.1-5.4-0.7-6.4-1.7c-0.2-0.2-0.3-0.5-0.2-0.7c0.1-0.2,0.4-0.3,0.7-0.1c1.2,0.5,2.1,0.7,2.6,0.7c1.4,0,3.2-0.6,5.3-1.7
		c2.1-1.1,3.8-1.7,5.3-1.7c0.6,0,1.5,0.1,2.6,0.2c0.7-1.1,1.8-2.3,3.2-3.6c-0.4-0.3-0.8-0.5-1.2-0.5c-0.6,0-1.3,0.1-2.2,0.4
		c-0.9,0.2-1.7,0.4-2.2,0.4c-0.2,0-1-0.1-2.4-0.3c-0.3,0-0.5-0.2-0.4-0.6c0-0.3,0.2-0.5,0.6-0.4c1,0.2,2.3,0,3.8-0.6
		c1.5-0.6,2.3-1.2,2.3-1.7c0-0.6-0.8-1-2.4-1c-1,0-2,0.1-3.1,0.1c-0.9,0-1.7-0.2-2.4-0.4c-0.3-0.1-0.5-0.3-0.4-0.6
		c0.1-0.3,0.3-0.5,0.6-0.4c0.6,0,1.2,0.1,1.8,0.1c2.5,0,4.9-0.5,7.2-1.4c2.3-0.9,3.7-1.4,4.1-1.4c0.8,0,1.6,0.3,2.6,0.8
		c1,0.6,1.8,0.9,2.4,1c4.8-2.4,9.3-3.5,13.5-3.5c4,0,7.6,1.3,10.7,3.9C598.2,38.9,599.7,42.1,599.7,45.9z M582.9,46.8
		c0-0.9-0.4-1.4-1.3-1.4c-2.2,0-4.3,1.2-6.6,3.5c-2.3,2.4-3.5,5-3.5,7.6c0,0.8,0.2,1.6,0.7,2.3c0.5,0.7,1,1.1,1.8,1.1
		c1.4,0,2.8-0.7,4.3-2.1c1.3-1.3,2-2.5,2-3.4c0-0.6-0.2-0.9-0.6-0.9c-0.9,0-1.4,0.1-1.7,0.2c-0.3,0.1-0.5,0.2-0.8,0.2
		c-0.8,0-1.2-0.4-1.2-1.2c0-0.4,0.2-0.8,0.6-1c1.3-0.5,2.7-1,4-1.5C582.1,49.6,582.9,48.4,582.9,46.8z"/>
	<linearGradient id="SVGID_8_" gradientUnits="userSpaceOnUse" x1="593.2759" y1="45.4368" x2="639.7333" y2="45.4368">
		<stop  offset="0" style="stop-color:#00FFFF"/>
		<stop  offset="5.558515e-02" style="stop-color:#05FDFB"/>
		<stop  offset="0.1207" style="stop-color:#13F7EE"/>
		<stop  offset="0.1906" style="stop-color:#2BECD8"/>
		<stop  offset="0.2638" style="stop-color:#4CDEBA"/>
		<stop  offset="0.3398" style="stop-color:#76CB93"/>
		<stop  offset="0.4179" style="stop-color:#AAB564"/>
		<stop  offset="0.4964" style="stop-color:#E69A2E"/>
		<stop  offset="0.517" style="stop-color:#F7931E"/>
		<stop  offset="0.7886" style="stop-color:#FB420D"/>
		<stop  offset="1" style="stop-color:#FF0000"/>
	</linearGradient>
	<path class="st7" d="M639.6,19.7c-0.6,0.9-3.3,8-8.3,21.2c-2.2,5.7-4.3,11.3-6.4,17c-2.2,6.1-3.3,10.3-3.3,12.4
		c0,0.3,0,0.6,0.1,0.9c0,0.2,0,0.4-0.1,0.5c-0.1,0.1-0.2,0.1-0.4,0.1l-9.8-0.1l-9.9,0.3c-0.3,0-0.5-0.1-0.6-0.4c0-0.2,0-0.4,0.3-0.6
		c0.8-0.7,1.6-1.5,2.2-2.4c1.6-2.2,2.7-4.7,3.3-7.6c-0.8,0-1.7,0.1-2.7,0.3c-1,0.2-1.7,0.3-2.1,0.3c-0.9,0-1.9-0.2-3-0.6
		c-1.9-0.6-3.2-1-3.7-1.2c-0.3-0.1-0.5-0.3-0.4-0.6c0-0.3,0.2-0.5,0.6-0.4c0.5,0,1,0.1,1.5,0.1c1.7,0,3.7-0.5,6-1.5
		c2.2-1,3.8-1.5,5-1.4l2.3-6.3c-0.3-0.3-1.6-0.5-3.7-0.5c-1.1,0-1.9-0.2-2.6-0.4c-0.3-0.1-0.5-0.3-0.4-0.6c0-0.2,0.2-0.4,0.6-0.4
		c1.3-0.1,2.6-0.5,3.9-1.1c1.2-0.6,2.4-1,3.6-1l1.3-4c-1.2-0.2-2.3-0.4-3.5-0.4c-0.7,0-1.7,0.1-2.8,0.2c-1.2,0.1-2.2,0.2-3.1,0.2
		c-1,0-2.2-0.1-3.7-0.3c-1.5-0.2-2.7-0.3-3.4-0.3c-0.8,0-1.6,0.1-2.3,0.3c-0.3,0.1-0.6,0-0.6-0.4c-0.1-0.3,0-0.6,0.4-0.6
		c0.6-0.2,3-0.4,7.2-0.7c2.4-0.2,3.5-0.9,3.5-2.2c0-0.6-0.5-1.1-1.6-1.4s-2.2-0.4-3.3-0.2c-0.3,0-0.5-0.1-0.6-0.4
		c-0.1-0.3,0-0.5,0.4-0.6c1.2-0.3,2.3-0.4,3.1-0.4c1.3,0,2.9,0.4,4.9,1.1c2,0.7,3.6,1.1,4.9,1.1c0.8,0,1.7-0.2,2.7-0.6l1.4-4.8
		c-1-0.1-2.4-0.6-4-1.4c-1.5-0.7-2.8-1-4-1c-0.9,0-1.8,0.1-2.7,0.3c-0.3,0-0.6,0-0.6-0.3c-0.1-0.3,0-0.5,0.3-0.7
		c1.7-1.1,3.6-1.6,5.6-1.6c0.5,0,1.4,0,2.7,0.1c1,0.1,1.8,0.1,2.5,0c0.9,0,1.8-0.3,2.7-0.6l2.4-6c0.1-0.2,0.3-0.3,0.6-0.3
		c6.3,0.4,12.1,0.2,17.4-0.6c0.2,0,0.4,0,0.6,0.2C639.8,19.3,639.7,19.5,639.6,19.7z"/>
	<linearGradient id="SVGID_9_" gradientUnits="userSpaceOnUse" x1="625.0941" y1="46.0738" x2="658.4283" y2="46.0738">
		<stop  offset="0" style="stop-color:#00FFFF"/>
		<stop  offset="5.558515e-02" style="stop-color:#05FDFB"/>
		<stop  offset="0.1207" style="stop-color:#13F7EE"/>
		<stop  offset="0.1906" style="stop-color:#2BECD8"/>
		<stop  offset="0.2638" style="stop-color:#4CDEBA"/>
		<stop  offset="0.3398" style="stop-color:#76CB93"/>
		<stop  offset="0.4179" style="stop-color:#AAB564"/>
		<stop  offset="0.4964" style="stop-color:#E69A2E"/>
		<stop  offset="0.517" style="stop-color:#F7931E"/>
		<stop  offset="0.7886" style="stop-color:#FB420D"/>
		<stop  offset="1" style="stop-color:#FF0000"/>
	</linearGradient>
	<path class="st8" d="M658.3,36.7c-1.5,3.6-3,7.3-4.5,10.9c-3.4,8.8-6.1,16.8-8.4,24.2c-0.1,0.3-0.3,0.4-0.6,0.3
		c-4-0.4-9.6-0.5-16.8-0.1c-0.3,0-0.6-0.1-0.6-0.4c-0.1-0.2,0-0.5,0.3-0.6c1.9-1.2,2.8-2.4,2.8-3.5c0-0.7-0.4-1.2-1.1-1.6
		c-0.7-0.4-1.4-0.5-2.2-0.4c-0.5,0.1-0.8-0.1-0.8-0.5c0-0.2,0.1-0.4,0.4-0.5c0.6-0.4,1.6-0.7,2.9-0.9c0.9-0.1,1.5-0.4,1.7-0.9
		l2.4-6.6c-0.3-0.7-1.4-1.1-3.5-1.2c-2.4-0.1-4.1-0.4-5-0.9c-0.3-0.1-0.4-0.4-0.3-0.6c0.1-0.3,0.3-0.4,0.6-0.4
		c1.4,0.2,2.9-0.1,4.6-0.9c1.7-0.8,3-1.2,4-1.2c0.1,0,0.7,0,1.7,0.1l1.7-4.8c-0.6-0.1-1.6-0.5-2.8-1.1c-1-0.4-1.9-0.6-2.7-0.6
		c-1,0-1.9,0.1-2.8,0.4c-0.3,0.1-0.6,0-0.6-0.4c-0.1-0.3,0-0.6,0.4-0.6c0.1,0,0.7-0.2,1.7-0.6c0.7-0.2,1.3-0.4,1.9-0.4
		c2.2,0,3.3-0.3,3.3-0.8c0-0.5-0.9-0.8-2.7-1.1c-2.4-0.3-4.5-1.2-6.2-2.5c-0.2-0.1-0.3-0.3-0.3-0.5c0-0.3,0.2-0.5,0.5-0.5
		c0.2,0,0.8,0.1,1.6,0.4c0.8,0.3,1.5,0.5,1.8,0.5c0.6,0.1,1.3,0.1,2.2,0.1c0.4,0,1.1-0.1,1.9-0.3c0.8-0.2,1.5-0.3,2-0.3
		c1.1,0,2.4,0.3,3.9,0.9l1.3-3.1c0.2-0.2,0.4-0.3,0.5-0.3l15.2,0.3C658.4,35.9,658.6,36.2,658.3,36.7z M663.9,20.7L659,33
		c-0.1,0.2-0.3,0.3-0.5,0.3l-14.4-0.4c-0.5,0-0.6-0.2-0.5-0.7l1.7-5c-0.6-0.9-2.1-1.3-4.5-1.4c-3.1,0-5.3-0.2-6.5-0.6
		c-0.3-0.1-0.5-0.3-0.4-0.6c0-0.2,0.2-0.4,0.5-0.4c1.8-0.2,3.7-0.7,5.7-1.4c1.5-0.5,2.9-0.7,4.3-0.7c0.7,0,1.6,0,2.7,0.1l0.8-1.9
		c0.2-0.2,0.4-0.3,0.5-0.3h14.8C663.9,20,664.1,20.3,663.9,20.7z"/>
	<linearGradient id="SVGID_10_" gradientUnits="userSpaceOnUse" x1="653.2" y1="45.9377" x2="720.7451" y2="45.9377">
		<stop  offset="0" style="stop-color:#00FFFF"/>
		<stop  offset="5.558515e-02" style="stop-color:#05FDFB"/>
		<stop  offset="0.1207" style="stop-color:#13F7EE"/>
		<stop  offset="0.1906" style="stop-color:#2BECD8"/>
		<stop  offset="0.2638" style="stop-color:#4CDEBA"/>
		<stop  offset="0.3398" style="stop-color:#76CB93"/>
		<stop  offset="0.4179" style="stop-color:#AAB564"/>
		<stop  offset="0.4964" style="stop-color:#E69A2E"/>
		<stop  offset="0.517" style="stop-color:#F7931E"/>
		<stop  offset="0.7886" style="stop-color:#FB420D"/>
		<stop  offset="1" style="stop-color:#FF0000"/>
	</linearGradient>
	<path class="st9" d="M720.6,19.9c-2.8,4.4-6.4,13-10.6,25.6c-1.5,4.6-3.1,9.2-4.7,13.8c-1.6,5.2-2.4,8.8-2.4,10.8
		c0,0.6,0.1,1.1,0.2,1.5c0.1,0.2,0.1,0.4,0,0.5c-0.1,0.1-0.3,0.1-0.6,0.1c-5-0.4-10.5-0.4-16.3,0c-0.2,0-0.4,0-0.6-0.1
		c-0.1-0.1-0.1-0.3,0-0.5c0.1-0.6,0.3-1.4,0.6-2.2c-3.3,2.4-6.9,3.5-10.9,3.5c-6,0-10.2-3.2-12.5-9.7c-1.4-0.4-2.4-0.6-3-0.6
		c-0.5,0-1.5,0.1-3.1,0.3c-1.2,0.1-2.2,0.1-3.1-0.1c-0.3,0-0.5-0.2-0.4-0.6c0-0.3,0.2-0.4,0.6-0.4c1.2,0,2.7-0.6,4.5-1.9
		c2.3-1.4,3.7-2.3,4.4-2.5c0.4-2.2,1-4.2,1.9-6c-1.1-0.9-2.5-1.3-4.2-1.3c-1.8,0-3,0-3.6-0.1c-0.3,0-0.5-0.2-0.5-0.5
		c0-0.3,0.2-0.5,0.5-0.5c0.9-0.1,2.3-0.6,4.2-1.3c1.6-0.6,3-0.9,4.2-0.9c0.1,0,0.6,0,1.6,0.1l1.3-1.8c-2.4-0.9-4.9-1.3-7.4-1.3
		c-2.4,0-4.4,0.3-6.1,0.9c-0.5,0.2-0.8,0-0.8-0.5c0-0.2,0.1-0.4,0.4-0.5c1.4-0.7,4.2-1.2,8.1-1.5c3.1-0.2,4.6-0.7,4.6-1.7
		c0-0.7-0.6-1.3-1.9-1.7c-1.6-0.6-2.7-1.1-3.1-1.5c-0.1-0.1-0.2-0.3-0.2-0.4c0-0.3,0.2-0.5,0.6-0.5c0.1,0,0.2,0,0.4,0.1
		c0.8,0.7,1.8,1,3.2,1c0.9,0,1.9-0.1,3.2-0.4c1.3-0.3,2.4-0.4,3.2-0.4c1.1,0,2.4,0.4,3.9,1.2c3.2-2.8,7.1-4.2,11.9-4.2
		c3.1,0,6.2,1,9.1,3.1l2.2-6.6c-1.9-1.4-3.6-2.1-5.3-2.1c-0.8,0-1.6,0.1-2.6,0.3c-0.9,0.2-2.3,0.3-4.1,0.1c-0.3,0-0.5-0.2-0.4-0.6
		c0-0.3,0.2-0.5,0.6-0.4c0.3,0,0.6,0.1,0.9,0.1c0.9,0,2.4-0.4,4.5-1.2c2.1-0.8,3.8-1.2,5.1-1.2h2.4l0.9-3.9c0-0.2,0.2-0.3,0.5-0.3
		c9.1,0.2,15.1-0.4,18-1.9c0.3-0.1,0.5-0.1,0.7,0.1C720.8,19.4,720.8,19.6,720.6,19.9z M692.3,46.9c-0.9-0.8-1.7-1.2-2.3-1.2
		c-2.6,0-4.9,1.1-6.9,3.2c-2,2.1-3,4.2-3,6.4c0,1.2,0.3,2.4,1,3.3c0.7,1,1.6,1.4,2.8,1.4c2.4,0,4.1-0.6,5.1-1.9L690,55
		c-0.8-0.9-1.6-1.3-2.4-1.3c-1.6,0-2.8,0.2-3.6,0.6c-0.3,0.1-0.6,0.1-0.7-0.1c-0.2-0.2-0.2-0.4,0-0.7c0.7-1.1,2.2-1.8,4.5-2.3
		c2.2-0.5,3.4-0.9,3.5-1.4L692.3,46.9z"/>
	<linearGradient id="SVGID_11_" gradientUnits="userSpaceOnUse" x1="706.4534" y1="52.6799" x2="760.3447" y2="52.6799">
		<stop  offset="0" style="stop-color:#00FFFF"/>
		<stop  offset="5.558515e-02" style="stop-color:#05FDFB"/>
		<stop  offset="0.1207" style="stop-color:#13F7EE"/>
		<stop  offset="0.1906" style="stop-color:#2BECD8"/>
		<stop  offset="0.2638" style="stop-color:#4CDEBA"/>
		<stop  offset="0.3398" style="stop-color:#76CB93"/>
		<stop  offset="0.4179" style="stop-color:#AAB564"/>
		<stop  offset="0.4964" style="stop-color:#E69A2E"/>
		<stop  offset="0.517" style="stop-color:#F7931E"/>
		<stop  offset="0.7886" style="stop-color:#FB420D"/>
		<stop  offset="1" style="stop-color:#FF0000"/>
	</linearGradient>
	<path class="st10" d="M760.3,46.2c0,2.2-0.3,5.2-0.9,9c-0.1,0.3-0.3,0.5-0.5,0.5h-23c0,1.6,0.6,2.9,1.9,3.7
		c1.2,0.7,2.6,1.1,4.2,1.1c4.4,0,7.9-1,10.6-3.1c0.3-0.2,0.5-0.3,0.7-0.1c0.2,0.2,0.2,0.5,0.1,0.8c-0.7,1.4-1.3,4.8-1.9,10.2
		c0,0.2-0.1,0.3-0.2,0.4c-3.6,2.8-8.3,4.2-14,4.2c-9.2,0-14.8-2.9-16.6-8.6c-3.3,0.4-6,0.2-8.1-0.5c-0.3-0.1-0.5-0.3-0.5-0.6
		c0-0.2,0.2-0.4,0.5-0.4c1.4-0.3,2.7-0.8,3.9-1.6c1.4-1,2.2-2.2,2.2-3.5c0-1.4-0.8-2.4-2.3-3c-0.7-0.2-2.3-0.5-4.9-0.8
		c-2.2-0.3-3.7-0.7-4.6-1.3c-0.3-0.2-0.4-0.4-0.3-0.6c0.1-0.2,0.3-0.3,0.6-0.3c0.7,0.1,1.3,0.2,1.9,0.2c1,0,2.2-0.3,3.7-0.9
		c1.5-0.6,2.8-0.9,3.8-0.9c0.9,0,2,0.2,3.5,0.6c0.6-1.5,1.7-3.5,3.3-6c-3.1,0-5.4-0.3-6.8-0.9c-0.2-0.1-0.4-0.3-0.4-0.5
		c0-0.6,0.3-0.7,0.8-0.5c0.3,0.1,0.7,0.2,1.2,0.2c0.8,0,1.6-0.2,2.3-0.6c0.7-0.4,1-0.9,0.9-1.6c-0.1-1.2-1.3-1.9-3.4-1.9
		c-0.4,0-0.9,0-1.6,0.1c-0.7,0.1-1.2,0.1-1.7,0.1c-0.6,0-1.8-0.1-3.5-0.4c-0.3,0-0.5-0.2-0.4-0.6c0-0.3,0.2-0.5,0.6-0.4
		c1.3,0.2,2.9-0.1,4.9-0.8c2-0.7,3.6-1,4.7-1c0.8,0,1.9,0.3,3.3,1c1.4,0.7,2.7,1.1,4,1.3c7.4-4.1,13.4-6.1,17.9-6.1
		c4,0,7.3,1.2,9.9,3.6C758.9,38.5,760.3,42,760.3,46.2z M748,45.9c0-0.9-0.2-1.6-0.7-2.3s-1.1-1-1.9-1c-2.2,0-4.6,1.6-7.1,4.8
		l9.1,0.1C747.9,46.9,748,46.3,748,45.9z"/>
</g>
</svg>
