<?xml version="1.0" encoding="utf-8"?>
<!-- Generator: Adobe Illustrator 22.1.0, SVG Export Plug-In . SVG Version: 6.00 Build 0)  -->
<svg version="1.1" id="Calque_1" xmlns="http://www.w3.org/2000/svg" xmlns:xlink="http://www.w3.org/1999/xlink" x="0px" y="0px"
	 viewBox="0 0 817 135" style="enable-background:new 0 0 817 135;" xml:space="preserve">
<style type="text/css">
	.st0{fill:#F9F9F9;}
	.st1{fill:#FFFFFF;}
</style>
<g>
	<path class="st0" d="M157.8,56.3c0,4.6-2,8.8-6,12.6c-3.5,3.2-7.5,5.5-12,6.8c4.5,10.8,7.9,17.3,10.2,19.5c0.2,0.2,0.3,0.4,0.2,0.6
		c-0.1,0.2-0.3,0.3-0.6,0.3L125.8,96c-0.3,0-0.5-0.1-0.6-0.3c-0.1-0.2,0-0.5,0.2-0.6c0.4-0.3,0.9-0.7,1.3-1c0.4-0.4,0.6-0.8,0.6-1.2
		c0-2.5-1.4-6.3-4.3-11.2c-1.8,4.7-2.7,8.4-2.7,11.2c0,0.5,0.3,1.4,0.8,2.7c0.2,0.5,0,0.7-0.5,0.7l-23.3,0.3c-0.3,0-0.5-0.1-0.6-0.4
		c-0.1-0.2,0-0.4,0.2-0.6c0.6-0.5,1.2-1.1,1.8-1.8c1.2-1.5,2.1-3.1,2.7-4.8c-1.3-0.4-2.3-0.6-3-0.6c-1.6,0-3.7,0.7-6.3,2
		c-4.4,2.3-6.7,3.5-6.8,3.5c-2.8,1.2-5.5,1.8-8,1.6c-0.3,0-0.5-0.2-0.4-0.5c0-0.3,0.2-0.5,0.5-0.5c1.9,0,3.9-0.5,6-1.4
		c2.4-1.2,3.5-2.5,3.5-4.2c0-0.4-0.2-0.8-0.6-1.2c-0.4-0.3-0.9-0.5-1.3-0.5c-1.4,0-3.5,0.5-6.2,1.6c-2.7,1.1-5,1.6-6.7,1.6
		c-1.7,0-3.9-0.4-6.5-1.3c-2.6-0.9-4.8-1.3-6.5-1.3c-1,0-1.9,0.1-2.8,0.3c-0.3,0-0.6-0.1-0.6-0.4c-0.1-0.3,0-0.6,0.4-0.6
		c2.4-0.7,5.7-1.1,10.1-1.1c4,0,7.5-0.6,10.6-1.7c2.3-1,4.6-2,7-3.1c2.6-1.1,5.3-1.7,8-1.7c0.4,0,1.2,0,2.2,0.1c1,0,1.8,0.1,2.3,0.1
		c3,0,4.5-0.8,4.5-2.5c0-1.8-2.1-2.7-6.3-2.7c-3,0-6.8,0.8-11.4,2.4c-4.6,1.6-8.4,2.4-11.5,2.4c-2.7,0-6.2-0.7-10.4-2
		c-4.2-1.3-7.7-2-10.5-2c-2.3,0-5.1,0.6-8.4,1.9c-0.5,0.2-0.8,0-0.8-0.5c0-0.2,0.1-0.4,0.4-0.5c3-1.6,5.4-2.7,7-3.2
		c2.3-0.8,4.7-1.2,7.4-1.2c1.3,0,3,0.1,5.2,0.2c2.2,0.1,3.9,0.2,5.3,0.2c5.5,0,8.3-1.1,8.3-3.2c0-1.8-1.8-2.7-5.5-2.7
		c-1.2,0-2.6,0.1-4.3,0.3c-1.7,0.2-3.1,0.3-4.2,0.3c-3,0-6.6-0.7-10.9-2.2c-0.3-0.1-0.5-0.4-0.4-0.7c0.1-0.3,0.3-0.4,0.6-0.3
		c2.2,0.8,3.8,1.2,4.9,1.2c2.2,0,5.3-0.8,9.4-2.5c4.1-1.7,7.4-2.5,10-2.5c3.1,0,7,0.8,11.7,2.4c4.7,1.6,8.6,2.4,11.6,2.4
		c2.4,0,4-0.1,4.8-0.2c1.7-0.3,2.6-1.1,2.6-2.3c0-1.2-0.8-2.1-2.4-2.4c-0.8-0.1-2.3-0.2-4.5-0.2c-2.6,0-5.8-0.9-9.5-2.8
		c-3.8-1.9-6.9-2.8-9.5-2.8c-2.5,0-4.5,0.1-5.9,0.4c-0.3,0-0.6-0.1-0.6-0.4c-0.1-0.3,0-0.5,0.4-0.6c4-1.1,7.3-1.7,9.9-1.7
		c1.8,0,4,0.2,6.8,0.7c2.7,0.5,4.9,0.7,6.5,0.7c4.4,0,6.6-1,6.6-3c0-2.5-2.3-3.7-6.8-3.7c-0.9,0-2,0.1-3.4,0.4
		c-1.4,0.2-2.5,0.4-3.5,0.4c-1.9,0-3.5-0.2-4.8-0.5c-0.3-0.1-0.5-0.3-0.4-0.6c0-0.3,0.2-0.5,0.6-0.4c0.1,0,0.4,0.1,0.8,0.2
		c0.5,0.1,0.8,0.2,1.1,0.2c1.8,0,3.9-0.5,6.4-1.5c2.5-1,4.6-1.5,6.4-1.5c1.8,0,5.4,0.5,10.8,1.4c5.4,1,12,1.4,20,1.4
		c9.2,0,15.3,0.3,18.3,1C154.6,48,157.8,51.2,157.8,56.3z M68.5,55c-2.4,1.1-4.7,1.6-6.7,1.7c-1.3,0-3-0.4-5-1.5
		c-2-1-3.9-1.5-5.4-1.5c-0.6,0-1.5,0.1-2.7,0.3c-0.3,0.1-0.5,0-0.6-0.3c-0.1-0.2-0.1-0.4,0.1-0.6c2.5-1.2,5-1.9,7.4-2
		c1.1,0,2.8,0.5,5.1,1.6c2.3,1.1,3.9,1.7,4.7,1.6c0.6,0,1.6-0.1,2.8-0.2c0.2,0,0.4,0,0.5,0.3C68.8,54.7,68.7,54.9,68.5,55z
		 M136.5,59.8c0-1.5-1.5-2.3-4.5-2.3c-0.8,0-1.7,0-2.7,0.1l-2.2,7.7C133.4,65.1,136.5,63.3,136.5,59.8z"/>
	<path class="st0" d="M199.8,71.2c0,2.2-0.3,5.2-0.9,9c-0.1,0.3-0.3,0.5-0.5,0.5h-23c0,1.6,0.6,2.9,1.9,3.7c1.2,0.7,2.6,1.1,4.2,1.1
		c4.4,0,7.9-1,10.6-3.1c0.3-0.2,0.5-0.3,0.7-0.1c0.2,0.2,0.2,0.5,0.1,0.8c-0.7,1.4-1.3,4.8-1.9,10.2c0,0.2-0.1,0.3-0.2,0.4
		c-3.6,2.8-8.3,4.2-14,4.2c-9.2,0-14.8-2.9-16.6-8.6c-3.3,0.4-6,0.2-8.1-0.5c-0.3-0.1-0.5-0.3-0.5-0.6c0-0.2,0.2-0.4,0.5-0.4
		c1.4-0.3,2.7-0.8,3.9-1.6c1.4-1,2.2-2.2,2.2-3.5c0-1.4-0.8-2.4-2.3-3c-0.7-0.2-2.3-0.5-4.9-0.8c-2.2-0.3-3.7-0.7-4.6-1.3
		c-0.3-0.2-0.4-0.4-0.3-0.6c0.1-0.2,0.3-0.3,0.6-0.3c0.7,0.1,1.3,0.2,1.9,0.2c1,0,2.2-0.3,3.7-0.9c1.5-0.6,2.8-0.9,3.8-0.9
		c0.9,0,2,0.2,3.5,0.6c0.6-1.5,1.7-3.5,3.3-6c-3.1,0-5.4-0.3-6.8-0.9c-0.2-0.1-0.4-0.3-0.4-0.5c0-0.6,0.3-0.7,0.8-0.5
		c0.3,0.1,0.7,0.2,1.2,0.2c0.8,0,1.6-0.2,2.3-0.6c0.7-0.4,1-0.9,0.9-1.6c-0.1-1.2-1.3-1.9-3.4-1.9c-0.4,0-0.9,0-1.6,0.1
		c-0.7,0.1-1.2,0.1-1.7,0.1c-0.6,0-1.8-0.1-3.5-0.4c-0.3,0-0.5-0.2-0.4-0.6c0-0.3,0.2-0.5,0.6-0.4c1.3,0.2,2.9-0.1,4.9-0.8
		c2-0.7,3.6-1,4.7-1c0.8,0,1.9,0.3,3.3,1c1.4,0.7,2.7,1.1,4,1.3c7.4-4.1,13.4-6.1,17.9-6.1c4,0,7.3,1.2,9.9,3.6
		C198.3,63.5,199.8,67,199.8,71.2z M187.4,70.9c0-0.9-0.2-1.6-0.7-2.3c-0.5-0.6-1.1-1-1.9-1c-2.2,0-4.6,1.6-7.1,4.8l9.1,0.1
		C187.3,71.9,187.4,71.3,187.4,70.9z"/>
	<path class="st0" d="M254.1,64.2c0,3.7-1.4,9-4.2,16.1c-3.1,7.6-4.8,12.8-5.2,15.4c0,0.3-0.2,0.4-0.5,0.4l-17.9,0.3
		c-0.3,0-0.5-0.1-0.6-0.3c0-0.1,0-0.3,0.2-0.6c1.2-1.3,3-5.2,5.3-11.7c2.2-6,3.3-9.6,3.3-10.6c0-1.1-0.3-1.6-0.8-1.6
		c-2,0-4.3,3.2-6.9,9.7c-0.8,2.1-2.5,6.9-5,14.5c-0.1,0.2-0.3,0.4-0.6,0.4c-4.1-0.1-7.3-0.2-9.6-0.2c-2.3,0-5.1,0.2-8.4,0.6
		c-0.3,0-0.5,0-0.6-0.3c-0.1-0.2,0-0.5,0.3-0.7c0.3-0.2,0.7-0.5,1-0.8c0.7-0.7,1.2-1.5,1.3-2.3c-0.9-0.7-1.5-1.1-2-1.1
		c-0.5,0-1.1,0-1.9,0.1c-0.8,0.1-1.4,0.1-1.9,0.1c-1.7,0-3.9-0.5-6.4-1.4c-0.3-0.1-0.5-0.4-0.4-0.6c0-0.3,0.3-0.5,0.6-0.4
		c0.9,0.2,1.9,0.4,3.2,0.4c1.3,0,2.9-0.5,4.8-1.6c1.8-1.1,3.8-1.7,5.9-1.8l1.9-4.5c-1.1-1.1-2.3-1.7-3.7-1.9
		c-1.9-0.1-3.3-0.4-4.1-0.8c-0.3-0.1-0.4-0.3-0.4-0.5c0-0.2,0.2-0.4,0.5-0.4c1.8-0.3,3.5-0.8,4.9-1.4c1.8-0.8,3.6-1.4,5.2-1.9
		l1.7-4.5c-0.9-0.6-1.8-0.9-2.5-0.9c-1,0-2.2,0.2-3.8,0.6c-1.6,0.4-2.8,0.6-3.8,0.6c-1.8,0-3.6-0.3-5.5-0.9
		c-0.3-0.1-0.5-0.3-0.4-0.6c0.1-0.3,0.4-0.5,0.7-0.4c0.8,0.2,1.6,0.4,2.6,0.4c2.8,0,4.2-0.8,4.2-2.4c0-0.5-0.4-0.7-1.3-0.7
		c-0.1,0-0.5,0-1,0c-0.5,0-0.9,0.1-1.2,0.1c-2,0-3.9-0.3-5.8-0.9c-0.3-0.1-0.5-0.3-0.4-0.6c0.1-0.3,0.3-0.4,0.6-0.4
		c0.7,0.1,1.4,0.2,2.2,0.2c1.2,0,2.8-0.5,4.5-1.4c1.8-0.9,3.3-1.4,4.5-1.4c1,0,2.3,0.3,3.7,1c1.5,0.6,2.7,1,3.7,1
		c0.6,0,1.2,0,1.6-0.1l1.8-4.8c0-0.2,0.2-0.3,0.5-0.3l16.3-0.2c0.2,0,0.4,0.1,0.5,0.2c0.1,0.1,0.1,0.3,0,0.5l-1.2,3
		c3.6-1.6,5.9-2.6,6.8-3c2.7-0.9,5.2-1.4,7.5-1.4c1.4,0,2.7,0.7,3.9,2.1C253.5,60.9,254.1,62.5,254.1,64.2z"/>
	<path class="st0" d="M300,57.1l-6.3,14.1c-0.1,0.2-0.2,0.4-0.4,0.4h-5.1c-1.8,2.7-2.7,5.3-2.7,7.8c0,0.5,0.2,1,0.7,1.4
		c0.5,0.4,1,0.6,1.6,0.6c1.6,0,3.1-0.3,4.5-0.9c0.3-0.1,0.5-0.1,0.6,0s0.2,0.4,0.1,0.6l-5.6,13.7l-0.3,0.3
		c-4.4,1.8-8.2,2.7-11.6,2.7c-6.2,0-9.6-2.1-10.2-6.4c-2.4-1.4-4.7-2-6.8-1.7c-0.3,0-0.6,0-0.6-0.3c-0.1-0.2,0-0.5,0.3-0.6
		c0.7-0.5,2.3-1.1,4.8-1.9c1.7-0.6,2.5-1.3,2.5-2.2c0-1.2-0.7-1.9-2.1-2.3c-0.7-0.2-2.1-0.3-4-0.3c-0.5,0-1.1,0-1.9,0.1
		c-0.8,0.1-1.5,0.1-2,0.1c-0.3,0-1.4-0.4-3.1-1.2c-0.3-0.2-0.4-0.4-0.3-0.7c0.1-0.2,0.3-0.3,0.6-0.3c0.9,0.2,1.5,0.3,1.9,0.3
		c1.7,0,3.8-0.7,6.3-2.1c2.5-1.4,4.8-2,6.8-1.8l1.7-4.3h-4.8c-0.5,0-0.6-0.2-0.5-0.7l1.9-6.3c-2.5-1.1-5.6-1.6-9.2-1.6
		c-0.7,0-1.3,0.1-2,0.2c-0.3,0-0.6,0-0.6-0.3c-0.1-0.3,0-0.5,0.3-0.7c1.5-0.8,3.7-1.3,6.6-1.5c2.1-0.2,3.1-0.7,3.1-1.5
		c0-0.4-0.8-0.8-2.4-1.4c-1.8-0.6-3-1.3-3.4-1.9c-0.2-0.2-0.2-0.5-0.1-0.6c0.1-0.2,0.3-0.2,0.6-0.1c0.6,0.2,1.1,0.3,1.5,0.3
		c0.5,0,1.1,0,1.8-0.1c0.7-0.1,1.3-0.1,1.7-0.1c0.7,0,1.6,0.3,2.7,0.8c1.1,0.5,1.9,0.8,2.6,0.8h5.8l2.2-5c-0.4-0.3-1-0.4-1.8-0.4
		c-0.2,0-0.6,0-1.1,0.1c-0.5,0-0.9,0-1.2,0c-1,0-1.8-0.2-2.5-0.5c-0.2-0.2-0.3-0.4-0.3-0.6c0-0.2,0.2-0.4,0.5-0.4
		c0.7-0.1,2-0.6,4-1.4c1.5-0.6,3-0.9,4.3-0.8l0.7-1.9c0.1-0.2,0.3-0.3,0.5-0.3l16.1,0.1c0.5,0,0.7,0.2,0.5,0.7l-3.8,9.4l6.5,0.2
		C300,56.3,300.1,56.6,300,57.1z"/>
	<path class="st0" d="M578.3,54.9c0,5.5-4,10.4-12.1,14.6c5.2,2.6,7.8,6.4,7.8,11.5c0,4.7-2.1,8.4-6.3,11.2
		c-3.9,2.5-8.6,3.8-14.1,3.9l-34.3,0.2c-0.3,0-0.5-0.1-0.5-0.4c0-0.3,0.1-0.5,0.4-0.6c1.6-0.3,3-2,4.1-5.2c-1.5,0.2-3.4,1.2-5.8,3
		c-2.3,1.5-4.1,2.3-5.5,2.3c-1.2,0-2.6-0.3-4.3-0.8c-1.7-0.5-3.1-0.8-4.2-0.8c-0.8,0-1.7,0.3-2.7,0.8c-0.5,0.2-0.7,0-0.7-0.6
		c0-0.2,0.1-0.4,0.4-0.5c1.8-0.7,3.5-1.1,5-1.1c4.1,0,6.2-1,6.2-3.1c0-0.9-0.6-1.6-1.7-2.2c-0.9-0.4-1.8-0.6-3-0.6
		c-1.9,0-4.2,0.5-7.1,1.5c-2.9,1-5.2,1.5-7.1,1.5c-3,0-6.6-0.8-10.7-2.4c-0.2-0.1-0.4-0.3-0.4-0.5c0-0.5,0.2-0.7,0.7-0.6
		c1.5,0.5,3.4,0.7,5.5,0.7c3.2,0,7.1-1.3,11.8-3.9c4.6-2.6,8.6-3.9,11.8-3.9c0.8,0,1.8,0.1,3,0.2c1.2,0.1,2.2,0.2,3,0.2
		c2.6,0,4-0.7,4-2c0-2.4-2.5-3.6-7.5-3.6c-3.2,0-7.5,1-12.7,3.1c-5.3,2-9.7,3.1-13.2,3.1c-2.7,0-6.1-0.7-10.1-2.1
		c-4.1-1.4-7.4-2.1-10.1-2.1c-1.6,0-4,0.5-7.1,1.6c-0.3,0.1-0.6,0-0.6-0.3c-0.1-0.3,0-0.6,0.4-0.7c6-2.2,11.9-3.2,17.6-3.2
		c1.2,0,2.6,0.1,4.3,0.3c1.7,0.2,3.1,0.3,4.2,0.3c5.5,0,8.2-1.5,8.2-4.6c0-1.3-0.7-2.4-2.1-3.1c-1.2-0.6-2.6-0.9-4.2-0.9
		c-1.7,0-3.8,0.3-6.4,1c-2.6,0.7-4.7,1-6.4,1c-2.3,0-5-0.7-8.1-2.2c-0.3-0.1-0.4-0.4-0.3-0.7c0.1-0.3,0.3-0.4,0.6-0.3
		c2.7,1,4.7,1.5,5.9,1.5c1.9,0,5.1-0.9,9.6-2.8c4.5-1.9,8.3-2.8,11.2-2.8c2.9,0,6.6,0.8,11.1,2.3c4.4,1.5,8.1,2.3,11,2.3
		c4.2,0,6.7-0.1,7.6-0.2c2.7-0.4,4.1-1.4,4.1-3.2c0-1.4-1.1-2.2-3.3-2.2c-0.8,0-1.9,0.1-3.3,0.4c-1.4,0.3-2.5,0.4-3.3,0.4
		c-2.7,0-6.1-1.1-10-3.2c-4-2.2-7.3-3.2-10-3.2c-1.7,0-3.2,0.1-4.3,0.2c-0.3,0-0.5-0.1-0.6-0.4c-0.1-0.3,0-0.5,0.4-0.6
		c3.1-0.7,5.2-1.1,6.3-1.1c2.2,0,4.9,0.3,8.3,0.9c3.4,0.6,6.2,0.9,8.3,0.9c4.3,0,6.4-1,6.4-2.9c0-2.7-2.7-4.1-8.1-4.1
		c-0.9,0-2,0-3.3,0.1c-1.3,0.1-2.4,0.1-3.3,0.1c-0.3,0-1.2-0.1-2.7-0.3c-0.3,0-0.5-0.2-0.5-0.5c0-0.3,0.2-0.5,0.5-0.5
		c6-1.1,11.8-1.6,17.3-1.6c2.5,0,5.7,0.2,9.5,0.6c3.8,0.4,7,0.6,9.4,0.6h17.8c6-0.1,10.4,0.6,13.3,1.9
		C576.5,48.3,578.3,51.1,578.3,54.9z M490,54.2c-2.4,1.1-4.7,1.6-6.7,1.7c-1.3,0-3-0.4-5-1.5c-2-1-3.9-1.5-5.4-1.5
		c-0.6,0-1.5,0.1-2.7,0.3c-0.3,0.1-0.5,0-0.6-0.3c-0.1-0.2-0.1-0.4,0.1-0.6c2.5-1.2,5-1.9,7.4-2c1.1,0,2.8,0.5,5.1,1.6
		c2.3,1.1,3.9,1.7,4.7,1.6c0.6,0,1.6-0.1,2.8-0.2c0.2,0,0.4,0,0.5,0.3C490.3,53.9,490.2,54.1,490,54.2z M553.9,77.5
		c0-2.2-2.4-3.1-7.3-2.9l-4,10.4h4.8c2.4,0,3.6-0.6,3.6-1.7c0-1.1-0.6-1.7-1.8-1.7c-0.7,0-1.2,0.1-1.7,0.4c-0.3,0.1-0.6,0.1-0.8-0.1
		c-0.1-0.2-0.1-0.5,0.1-0.7c0.7-0.6,2.1-1.2,4.4-1.7C553.1,79.1,553.9,78.4,553.9,77.5z M559.5,60.1c0-2.6-2.1-4-6.4-4.2l-3.1,9.1
		c2.9,0,4.9-0.3,6.1-0.6C558.4,63.7,559.5,62.3,559.5,60.1z"/>
	<path class="st0" d="M627.7,70.9c0,7.2-3.1,13.6-9.3,19.2c-6.2,5.6-13.2,8.4-20.9,8.4c-6.1,0-10.8-3-14-9.1
		c-0.1-0.2-0.6-0.4-1.4-0.4c-0.5,0-1.6,0.3-3.3,1s-3,1-4,1c-0.4,0-0.9-0.1-1.4-0.2c-0.8-0.2-1.3-0.4-1.5-0.4c-0.2,0-0.4-0.2-0.4-0.5
		c0-0.5,0.2-0.7,0.7-0.5c0.3,0.1,0.6,0.1,1.1,0.1c1.1,0,2.1-0.2,3.1-0.7c1.2-0.6,1.7-1.3,1.7-2.2c0-0.6-0.3-1.1-0.9-1.5
		c-0.6-0.4-1.2-0.6-1.9-0.6c-0.6,0-1.6,0.1-2.9,0.3c-1.1,0.1-2,0.2-2.9,0.1c-0.3,0-0.5-0.2-0.4-0.6c0-0.3,0.2-0.5,0.6-0.4
		c0.8,0.1,2.3-0.3,4.4-1.3s4.1-1.4,5.9-1.4c0.8,0,1.7,0.1,2.5,0.2c0.2-1,0.6-2,1.2-3.2c-1.1-1.2-3.2-1.8-6.3-1.9
		c-3.2-0.1-5.4-0.7-6.4-1.7c-0.2-0.2-0.3-0.5-0.2-0.7c0.1-0.2,0.4-0.3,0.7-0.1c1.2,0.5,2.1,0.7,2.6,0.7c1.4,0,3.2-0.6,5.3-1.7
		c2.1-1.1,3.8-1.7,5.3-1.7c0.6,0,1.5,0.1,2.6,0.2c0.7-1.1,1.8-2.3,3.2-3.6c-0.4-0.3-0.8-0.5-1.2-0.5c-0.6,0-1.3,0.1-2.2,0.4
		c-0.9,0.2-1.7,0.4-2.2,0.4c-0.2,0-1-0.1-2.4-0.3c-0.3,0-0.5-0.2-0.4-0.6c0-0.3,0.2-0.5,0.6-0.4c1,0.2,2.3,0,3.8-0.6
		c1.5-0.6,2.3-1.2,2.3-1.7c0-0.6-0.8-1-2.4-1c-1,0-2,0.1-3.1,0.1c-0.9,0-1.7-0.2-2.4-0.4c-0.3-0.1-0.5-0.3-0.4-0.6
		c0.1-0.3,0.3-0.5,0.6-0.4c0.6,0,1.2,0.1,1.8,0.1c2.5,0,4.9-0.5,7.2-1.4c2.3-0.9,3.7-1.4,4.1-1.4c0.8,0,1.6,0.3,2.6,0.8
		c1,0.6,1.8,0.9,2.4,1c4.8-2.4,9.3-3.5,13.5-3.5c4,0,7.6,1.3,10.7,3.9C626.2,63.9,627.7,67.1,627.7,70.9z M610.9,71.8
		c0-0.9-0.4-1.4-1.3-1.4c-2.2,0-4.3,1.2-6.6,3.5c-2.3,2.4-3.5,5-3.5,7.6c0,0.8,0.2,1.6,0.7,2.3c0.5,0.7,1,1.1,1.8,1.1
		c1.4,0,2.8-0.7,4.3-2.1c1.3-1.3,2-2.5,2-3.4c0-0.6-0.2-0.9-0.6-0.9c-0.9,0-1.4,0.1-1.7,0.2c-0.3,0.1-0.5,0.2-0.8,0.2
		c-0.8,0-1.2-0.4-1.2-1.2c0-0.4,0.2-0.8,0.6-1c1.3-0.5,2.7-1,4-1.5C610.1,74.6,610.9,73.4,610.9,71.8z"/>
	<path class="st0" d="M667.6,44.7c-0.6,0.9-3.3,8-8.3,21.2c-2.2,5.7-4.3,11.3-6.4,17c-2.2,6.1-3.3,10.3-3.3,12.4
		c0,0.3,0,0.6,0.1,0.9c0,0.2,0,0.4-0.1,0.5c-0.1,0.1-0.2,0.1-0.4,0.1l-9.8-0.1l-9.9,0.3c-0.3,0-0.5-0.1-0.6-0.4c0-0.2,0-0.4,0.3-0.6
		c0.8-0.7,1.6-1.5,2.2-2.4c1.6-2.2,2.7-4.7,3.3-7.6c-0.8,0-1.7,0.1-2.7,0.3c-1,0.2-1.7,0.3-2.1,0.3c-0.9,0-1.9-0.2-3-0.6
		c-1.9-0.6-3.2-1-3.7-1.2c-0.3-0.1-0.5-0.3-0.4-0.6c0-0.3,0.2-0.5,0.6-0.4c0.5,0,1,0.1,1.5,0.1c1.7,0,3.7-0.5,6-1.5
		c2.2-1,3.8-1.5,5-1.4l2.3-6.3c-0.3-0.3-1.6-0.5-3.7-0.5c-1.1,0-1.9-0.2-2.6-0.4c-0.3-0.1-0.5-0.3-0.4-0.6c0-0.2,0.2-0.4,0.6-0.4
		c1.3-0.1,2.6-0.5,3.9-1.1c1.2-0.6,2.4-1,3.6-1l1.3-4c-1.2-0.2-2.3-0.4-3.5-0.4c-0.7,0-1.7,0.1-2.8,0.2c-1.2,0.1-2.2,0.2-3.1,0.2
		c-1,0-2.2-0.1-3.7-0.3c-1.5-0.2-2.7-0.3-3.4-0.3c-0.8,0-1.6,0.1-2.3,0.3c-0.3,0.1-0.6,0-0.6-0.4c-0.1-0.3,0-0.6,0.4-0.6
		c0.6-0.2,3-0.4,7.2-0.7c2.4-0.2,3.5-0.9,3.5-2.2c0-0.6-0.5-1.1-1.6-1.4s-2.2-0.4-3.3-0.2c-0.3,0-0.5-0.1-0.6-0.4
		c-0.1-0.3,0-0.5,0.4-0.6c1.2-0.3,2.3-0.4,3.1-0.4c1.3,0,2.9,0.4,4.9,1.1c2,0.7,3.6,1.1,4.9,1.1c0.8,0,1.7-0.2,2.7-0.6l1.4-4.8
		c-1-0.1-2.4-0.6-4-1.4c-1.5-0.7-2.8-1-4-1c-0.9,0-1.8,0.1-2.7,0.3c-0.3,0-0.6,0-0.6-0.3c-0.1-0.3,0-0.5,0.3-0.7
		c1.7-1.1,3.6-1.6,5.6-1.6c0.5,0,1.4,0,2.7,0.1c1,0.1,1.8,0.1,2.5,0c0.9,0,1.8-0.3,2.7-0.6l2.4-6c0.1-0.2,0.3-0.3,0.6-0.3
		c6.3,0.4,12.1,0.2,17.4-0.6c0.2,0,0.4,0,0.6,0.2C667.8,44.3,667.7,44.5,667.6,44.7z"/>
	<path class="st0" d="M686.3,61.7c-1.5,3.6-3,7.3-4.5,10.9c-3.4,8.8-6.1,16.8-8.4,24.2c-0.1,0.3-0.3,0.4-0.6,0.3
		c-4-0.4-9.6-0.5-16.8-0.1c-0.3,0-0.6-0.1-0.6-0.4c-0.1-0.2,0-0.5,0.3-0.6c1.9-1.2,2.8-2.4,2.8-3.5c0-0.7-0.4-1.2-1.1-1.6
		c-0.7-0.4-1.4-0.5-2.2-0.4c-0.5,0.1-0.8-0.1-0.8-0.5c0-0.2,0.1-0.4,0.4-0.5c0.6-0.4,1.6-0.7,2.9-0.9c0.9-0.1,1.5-0.4,1.7-0.9
		l2.4-6.6c-0.3-0.7-1.4-1.1-3.5-1.2c-2.4-0.1-4.1-0.4-5-0.9c-0.3-0.1-0.4-0.4-0.3-0.6c0.1-0.3,0.3-0.4,0.6-0.4
		c1.4,0.2,2.9-0.1,4.6-0.9c1.7-0.8,3-1.2,4-1.2c0.1,0,0.7,0,1.7,0.1l1.7-4.8c-0.6-0.1-1.6-0.5-2.8-1.1c-1-0.4-1.9-0.6-2.7-0.6
		c-1,0-1.9,0.1-2.8,0.4c-0.3,0.1-0.6,0-0.6-0.4c-0.1-0.3,0-0.6,0.4-0.6c0.1,0,0.7-0.2,1.7-0.6c0.7-0.2,1.3-0.4,1.9-0.4
		c2.2,0,3.3-0.3,3.3-0.8c0-0.5-0.9-0.8-2.7-1.1c-2.4-0.3-4.5-1.2-6.2-2.5c-0.2-0.1-0.3-0.3-0.3-0.5c0-0.3,0.2-0.5,0.5-0.5
		c0.2,0,0.8,0.1,1.6,0.4c0.8,0.3,1.5,0.5,1.8,0.5c0.6,0.1,1.3,0.1,2.2,0.1c0.4,0,1.1-0.1,1.9-0.3c0.8-0.2,1.5-0.3,2-0.3
		c1.1,0,2.4,0.3,3.9,0.9l1.3-3.1c0.2-0.2,0.4-0.3,0.5-0.3l15.2,0.3C686.4,60.9,686.6,61.2,686.3,61.7z M691.9,45.7L687,58
		c-0.1,0.2-0.3,0.3-0.5,0.3l-14.4-0.4c-0.5,0-0.6-0.2-0.5-0.7l1.7-5c-0.6-0.9-2.1-1.3-4.5-1.4c-3.1,0-5.3-0.2-6.5-0.6
		c-0.3-0.1-0.5-0.3-0.4-0.6c0-0.2,0.2-0.4,0.5-0.4c1.8-0.2,3.7-0.7,5.7-1.4c1.5-0.5,2.9-0.7,4.3-0.7c0.7,0,1.6,0,2.7,0.1l0.8-1.9
		c0.2-0.2,0.4-0.3,0.5-0.3h14.8C691.9,45,692.1,45.3,691.9,45.7z"/>
	<path class="st0" d="M748.6,44.9c-2.8,4.4-6.4,13-10.6,25.6c-1.5,4.6-3.1,9.2-4.7,13.8c-1.6,5.2-2.4,8.8-2.4,10.8
		c0,0.6,0.1,1.1,0.2,1.5c0.1,0.2,0.1,0.4,0,0.5c-0.1,0.1-0.3,0.1-0.6,0.1c-5-0.4-10.5-0.4-16.3,0c-0.2,0-0.4,0-0.6-0.1
		c-0.1-0.1-0.1-0.3,0-0.5c0.1-0.6,0.3-1.4,0.6-2.2c-3.3,2.4-6.9,3.5-10.9,3.5c-6,0-10.2-3.2-12.5-9.7c-1.4-0.4-2.4-0.6-3-0.6
		c-0.5,0-1.5,0.1-3.1,0.3c-1.2,0.1-2.2,0.1-3.1-0.1c-0.3,0-0.5-0.2-0.4-0.6c0-0.3,0.2-0.4,0.6-0.4c1.2,0,2.7-0.6,4.5-1.9
		c2.3-1.4,3.7-2.3,4.4-2.5c0.4-2.2,1-4.2,1.9-6c-1.1-0.9-2.5-1.3-4.2-1.3c-1.8,0-3,0-3.6-0.1c-0.3,0-0.5-0.2-0.5-0.5
		c0-0.3,0.2-0.5,0.5-0.5c0.9-0.1,2.3-0.6,4.2-1.3c1.6-0.6,3-0.9,4.2-0.9c0.1,0,0.6,0,1.6,0.1l1.3-1.8c-2.4-0.9-4.9-1.3-7.4-1.3
		c-2.4,0-4.4,0.3-6.1,0.9c-0.5,0.2-0.8,0-0.8-0.5c0-0.2,0.1-0.4,0.4-0.5c1.4-0.7,4.2-1.2,8.1-1.5c3.1-0.2,4.6-0.7,4.6-1.7
		c0-0.7-0.6-1.3-1.9-1.7c-1.6-0.6-2.7-1.1-3.1-1.5c-0.1-0.1-0.2-0.3-0.2-0.4c0-0.3,0.2-0.5,0.6-0.5c0.1,0,0.2,0,0.4,0.1
		c0.8,0.7,1.8,1,3.2,1c0.9,0,1.9-0.1,3.2-0.4c1.3-0.3,2.4-0.4,3.2-0.4c1.1,0,2.4,0.4,3.9,1.2c3.2-2.8,7.1-4.2,11.9-4.2
		c3.1,0,6.2,1,9.1,3.1l2.2-6.6c-1.9-1.4-3.6-2.1-5.3-2.1c-0.8,0-1.6,0.1-2.6,0.3c-0.9,0.2-2.3,0.3-4.1,0.1c-0.3,0-0.5-0.2-0.4-0.6
		c0-0.3,0.2-0.5,0.6-0.4c0.3,0,0.6,0.1,0.9,0.1c0.9,0,2.4-0.4,4.5-1.2c2.1-0.8,3.8-1.2,5.1-1.2h2.4l0.9-3.9c0-0.2,0.2-0.3,0.5-0.3
		c9.1,0.2,15.1-0.4,18-1.9c0.3-0.1,0.5-0.1,0.7,0.1C748.8,44.4,748.8,44.6,748.6,44.9z M720.3,71.9c-0.9-0.8-1.7-1.2-2.3-1.2
		c-2.6,0-4.9,1.1-6.9,3.2c-2,2.1-3,4.2-3,6.4c0,1.2,0.3,2.4,1,3.3c0.7,1,1.6,1.4,2.8,1.4c2.4,0,4.1-0.6,5.1-1.9L718,80
		c-0.8-0.9-1.6-1.3-2.4-1.3c-1.6,0-2.8,0.2-3.6,0.6c-0.3,0.1-0.6,0.1-0.7-0.1c-0.2-0.2-0.2-0.4,0-0.7c0.7-1.1,2.2-1.8,4.5-2.3
		c2.2-0.5,3.4-0.9,3.5-1.4L720.3,71.9z"/>
	<path class="st0" d="M788.3,71.2c0,2.2-0.3,5.2-0.9,9c-0.1,0.3-0.3,0.5-0.5,0.5h-23c0,1.6,0.6,2.9,1.9,3.7c1.2,0.7,2.6,1.1,4.2,1.1
		c4.4,0,7.9-1,10.6-3.1c0.3-0.2,0.5-0.3,0.7-0.1c0.2,0.2,0.2,0.5,0.1,0.8c-0.7,1.4-1.3,4.8-1.9,10.2c0,0.2-0.1,0.3-0.2,0.4
		c-3.6,2.8-8.3,4.2-14,4.2c-9.2,0-14.8-2.9-16.6-8.6c-3.3,0.4-6,0.2-8.1-0.5c-0.3-0.1-0.5-0.3-0.5-0.6c0-0.2,0.2-0.4,0.5-0.4
		c1.4-0.3,2.7-0.8,3.9-1.6c1.4-1,2.2-2.2,2.2-3.5c0-1.4-0.8-2.4-2.3-3c-0.7-0.2-2.3-0.5-4.9-0.8c-2.2-0.3-3.7-0.7-4.6-1.3
		c-0.3-0.2-0.4-0.4-0.3-0.6c0.1-0.2,0.3-0.3,0.6-0.3c0.7,0.1,1.3,0.2,1.9,0.2c1,0,2.2-0.3,3.7-0.9c1.5-0.6,2.8-0.9,3.8-0.9
		c0.9,0,2,0.2,3.5,0.6c0.6-1.5,1.7-3.5,3.3-6c-3.1,0-5.4-0.3-6.8-0.9c-0.2-0.1-0.4-0.3-0.4-0.5c0-0.6,0.3-0.7,0.8-0.5
		c0.3,0.1,0.7,0.2,1.2,0.2c0.8,0,1.6-0.2,2.3-0.6c0.7-0.4,1-0.9,0.9-1.6c-0.1-1.2-1.3-1.9-3.4-1.9c-0.4,0-0.9,0-1.6,0.1
		c-0.7,0.1-1.2,0.1-1.7,0.1c-0.6,0-1.8-0.1-3.5-0.4c-0.3,0-0.5-0.2-0.4-0.6c0-0.3,0.2-0.5,0.6-0.4c1.3,0.2,2.9-0.1,4.9-0.8
		c2-0.7,3.6-1,4.7-1c0.8,0,1.9,0.3,3.3,1c1.4,0.7,2.7,1.1,4,1.3c7.4-4.1,13.4-6.1,17.9-6.1c4,0,7.3,1.2,9.9,3.6
		C786.9,63.5,788.3,67,788.3,71.2z M776,70.9c0-0.9-0.2-1.6-0.7-2.3s-1.1-1-1.9-1c-2.2,0-4.6,1.6-7.1,4.8l9.1,0.1
		C775.9,71.9,776,71.3,776,70.9z"/>
</g>
<g>
	<path class="st1" d="M405.3,100.6c0.4-1.7,0.8-3.5,1.3-5.5c-0.4,0.2-0.5,0.2-0.6,0.3c-1.2,2.6-3.4,3.8-6,4.1
		c-2.5,0.3-5.1,0.8-7.6,0.5c-3.4-0.4-7-0.8-9.9-3c-0.8-0.6-1.6-1.3-2.3-2.1c-1-1.1-1.9-2.3-3.1-3.8c0,1.4-0.2,2.5,0,3.4
		c0.4,1.8,0.3,3.4,0,5.2c-0.4,2.6-0.4,5.2-0.7,7.8c-0.1,0.6-0.2,1.3-0.6,1.8c-1.1,1.3-2.3,2.6-3.5,3.8c-0.6,0.6-1.2,0.9-2.1,0.7
		c-0.5-0.1-1.2,0.5-1.8,0.7c-0.4,0.1-0.9,0-1.3,0c-2,1.8-4.2,3.7-6.5,5.7c-0.3-0.2-0.7-0.5-1.2-0.9c1.1-1.9,1.7-3.9,1.5-6.1
		c-0.1-0.8-0.4-1.3-1.1-1.4c-2.8-0.4-4-2.9-2.8-6c-1,0.2-1.8,0.1-2.5,0.4c-1,0.5-1.8,0.6-3.4-0.2c1.1-0.5,2-1,2.9-1.3
		c0.9-0.3,1.9-1.8,2-2.7c0.2-1.1,0.6-2.2,0.9-3.4c0.1-0.4-0.1-0.9-0.3-1.3c-0.8-1.5-1.9-3-2.3-4.6c-0.4-1.4-0.1-3.1-0.1-4.7
		c0-0.5,0-1,0-1.5c0.9,0,1.4-0.3,1.1-1.4c-0.6-2.3-0.7-4.5,0.7-6.5c0-0.1,0.1-0.2,0.1-0.2c3-0.8,2.1-4,3.6-5.8
		c0.5-0.6,0.7-1.3,1.1-1.9c0.6-0.7,0.7-1.3-0.2-1.8c-1.1-0.7-1.5-3.2-1-4.5c1-2.8,3.3-4.5,5.1-6.6c0.2-0.3,0.3-0.7,0.3-1.1
		c0-0.9,0-1.8,0-2.6c0.1-0.9,0.4-1.8,0.5-2.7c0.1-0.4,0-0.8,0-1.3c0-0.6,0.3-1.2,0.1-1.7c-0.6-1.5-1.3-2.9-1.9-4.3
		c0,0.1-0.1,0.2-0.1,0.5c-0.1-0.2-0.1-0.3-0.1-0.5c-0.4-4.2,0.1-8.4,0.5-12.6c0.2-1.5,1.5-1.7,2.5-2.3c1-0.6,2.2-1.1,3.3-1.5
		c0.6-0.2,1.4-0.1,1.9-0.4c0.7-0.5,1.4-1.2,1.7-2c0.6-2.1,2.3-3,3.9-3.7c1.5-0.6,3.3-0.7,5-1.1c1.2-0.2,2.4-0.3,3.5-0.6
		c1.2-0.3,2.2-0.5,3.5-0.1c1.5,0.5,3.1,0.4,4.7,0.5c1.4,0.1,2.8,0.1,4.3,0c2.5-0.2,4.8,0.3,7.1,1.4c1.3,0.6,2.6,1.1,3.9,1.6
		c0.4,0.2,0.9,0.1,1.3,0.2c0.4,0.6,0.8,1.2,1.3,1.7c1,1,1.2,2.8,2.9,3.3c0.3,0.1,0.5,1,0.7,1.5c0.6,2.6,1,5.3,1.7,7.9
		c0.5,1.9,1,3.9,2,5.7c0.9,1.6,1.8,3.3,2,5.1c0.4,3.5,0.4,7.1,0.6,10.6c0,0.3,0.2,0.8,0.5,1c1.8,1.2,3,3.7,2.1,5.5
		c-1.3,2.4-1.1,4.4,0.2,6.6c1.1,1.9,1,3.9,1,5.9c0,0.9,0,1.6,1.1,2.2c0.8,0.4,1,1.9,1.3,3c0.3,1.1,0.7,2.4-0.4,3.4
		c-0.1,0.1,0,0.6,0.1,0.9c0.7,1.2,1.4,2.3,2.2,3.4c1.6,2.3,1.1,6.6-1.1,8.5c-1.3,1.2-3,2.1-4.4,3.3c-1.5,1.4-3.2,2.4-4.7,3.6
		c-0.3,0.3-0.5,1.4-0.2,1.7c0.5,0.5,1.3,0.6,2,0.9c0.4,0.1,0.8,0.1,1.4,0.2c0,0,0-0.3,0.2-0.3c1.6-0.5,1.4-1.8,1.5-3
		c0-0.3,0.3-0.6,0.4-0.9c0.3,0.2,0.7,0.3,0.9,0.6c1.1,1.5,0.8,3.1,0.2,4.7c0,0.1-0.2,0.2-0.3,0.3c-0.7,0.3-1.3,0.7-2,0.7
		c-1.8-0.1-3.6-0.3-5.4-0.5c-0.4-0.1-0.8-0.4-1.4-0.8c0,0.7-0.3,1.3-0.1,1.8c0.6,1.9,1.4,3.7,2,5.6c0.1,0.4,0,0.8-0.1,1.2
		c-0.4-0.1-0.8,0-1.1-0.2c-1.6-1.7-3.2-3.4-4.7-5.1c-0.1-0.2-0.3-0.4-0.5-0.6c-0.7,1.3-1.2,0.7-1.9,0c-0.5-0.5-1.3-0.8-2-1.3
		c-0.4-0.3-0.7-0.8-1-1.2c-1.7-2.5-2.3-5.2-2.2-8.1c0-0.7-0.3-1.3-0.4-2C405.2,100.5,405.2,100.5,405.3,100.6z M397.6,55.5
		c0-0.7,0-1.2,0.1-1.7c0.3-1.2-0.4-1.7-1.7-1.6c-0.8,0.1-1.7,0.5-2.4,0.9c-1.4,0.8-2.8,1.5-4.1,2.4c-1.3,0.9-1.8-0.4-2.7-0.8
		c-0.3-0.1-0.3-1-0.2-1.5c0.1-1.8,0.3-3.5,0.5-5.3c-1.7,1.7-2.2,3.6-1.7,5.7c-0.3,0.1-0.6,0.2-0.7,0.3c-0.7,0.8-1.2,0.6-1.7-0.2
		c-0.2-0.4-0.4-0.8-0.5-1.2c-0.3-1.2-0.5-2.4-0.8-3.6c-0.8,2.2-1.3,4.4-1.8,6.6c-0.1,0.4-0.5,0.7-0.7,1.1c-0.3-0.4-0.7-0.7-0.9-1.1
		c-0.6-1-1-2.2-1.7-3.1c-0.7-1-1.9-0.9-2.4,0.1c-1,2.5-1.9,5.1-1.8,7.9c0.1,2.4,0.1,4.8,0.1,7.2c0,0.5-0.2,1.1-0.6,1.3
		c-0.3,0.2-0.9-0.1-1.4-0.3c-0.3-0.1-0.6-0.3-0.6-0.3c-0.8-2.8-0.9-5.5-2.2-7.8c-0.2,0.3-0.4,0.6-0.4,0.9c0.1,2.2,0.2,4.3,0.4,6.5
		c0.1,1.7,0.2,3.5,0.6,5.1c0.2,1,0,2.7,1.8,2.6c0,0.4,0,0.7,0,1.3c1-0.4,1.9-0.7,3-1.1c0.5,1.6,1.1,3.1,1.5,4.7
		c0.8,3,1.9,5.8,3.5,8.4c0.2,0.3,0.7,0.4,1.1,0.6c0,0.7,0.2,1.3,0.6,1.8c0.8,1,1.6,2,2.5,2.9c0.7,0.8,1.5,1.8,2.4,2.1
		c2.1,0.8,4.3,1.2,6.5,1.7c0.9,0.2,1.8,0.5,2.7,0.4c2.2-0.2,4.5-0.5,6.7-1c1.6-0.4,3.2-1,4-2.9c0.4-1.1,1.1-2,1.8-3
		c1.1-1.7,2.4-3.2,3.3-5c1.6-3.1,2.3-6.6,2.8-10.1c0.2-1.4,0.8-1.8,2.2-1.4c0.5,0.1,1.2,0.6,1.5,0.4c0.5-0.4,0.8-1.1,1-1.8
		c0.3-1.1,0.6-2.2,0.7-3.3c0.1-1.2,0-2.5,0-3.8c0-0.4,0.1-0.8,0.1-1.2c0.1-1,0.1-2,0.2-3.1c-0.7,0.9-1.1,1.7-1.6,2.5
		c-0.5,0.7-0.8,1.3-0.1,2c0.1,0.1,0,0.4,0,0.7c-0.4-0.3-0.6-0.6-1-0.9c-0.5,0.9-0.8,1.7-1.2,2.4c-1-0.3-1.7-0.9-1.2-1.9
		c0.9-2,0.7-3.8-0.1-5.9c-0.7-1.8-0.5-3.9-0.6-5.9c0-1.2-0.5-1.8-1.6-1.8c-0.8-0.1-1.6,0-2.3,0.3c-1.4,0.7-2.7,0.8-4.2,0.3
		c-0.2-0.1-0.8,0.2-1,0.5c-0.7,1.2-1.4,1.6-2.7,1.4C399.6,55.9,398.6,55.7,397.6,55.5z M426.1,90.8c-0.5,0.4-1.1,0.8-1.6,1.3
		c-0.8,0.8-1.6,1.6-2.3,2.5c-0.2,0.3-0.3,1-0.1,1.4c0.6,1.2,1.3,2.3,2,3.4c0.1,0.1,0.2,0.3,0.4,0.3c0.8,0.3,3.5-0.9,3.9-1.6
		c0.9-1.7,0.3-4.5-1.1-5.9C426.9,91.8,426.6,91.4,426.1,90.8z M358.1,92.1c-0.4,1.8,0.4,3.7,1.8,3.9c0.2-0.5,0.4-1.1,0.5-1.6
		c0.1-0.5,0.2-1.2-0.1-1.6c-0.5-0.8-1.2-1.6-2-2.3c-0.3-0.3-0.8-0.4-1.2-0.6c0,0.5,0,1.1,0.2,1.6C357.4,91.8,357.8,91.9,358.1,92.1z
		 M364.8,71.6c-0.2-0.1-0.4-0.2-0.5-0.3c-0.4,0.6-0.7,1.2-1.1,1.8c-0.8,0.7-1.5,1.5-2.1,2.4c-0.3,0.4-0.5,1.2-0.3,1.4
		c0.4,0.4,1.1,0.6,1.9,1.1C362.3,75.2,365,73.9,364.8,71.6z M363.9,66.6c2.2-1.5,1.5-3.6,1.4-5.6c-0.5,0.4-1,0.7-1.3,1.1
		c-0.4,0.4-0.6,1-0.9,1.4C362.4,64.7,362.7,66,363.9,66.6z M424.8,81.6c-0.4,0.7-1,1.4-1.2,2.1c-0.4,1.2,0.7,1.5,1.4,1.9
		c0.3,0.1,1.3-0.3,1.4-0.7C426.8,83.7,426.3,82.1,424.8,81.6z M419.7,61.6c-0.1,2.1,0.5,3.6,2,5.2c0.4-0.8,1-1.5,0.9-1.9
		C422.2,63.5,421.4,62.2,419.7,61.6z M358.1,79.8c-1.6,1-1.4,2.2-1.1,3.2c0.5,1.4,1.3,1.7,2.8,1.3C359.3,82.9,358.7,81.4,358.1,79.8
		z M420.2,70.9c1.2,2.6,3,5.1,2.3,8.2C424.4,77.3,423.3,73.5,420.2,70.9z"/>
	<path class="st1" d="M381.1,87.4c-0.7-0.8-1.1-3.7-0.5-4.2c0.7-0.5,1.6-0.7,2.3-1.1c1.5-0.7,3-1.3,4.4-2.1c1.4-0.8,2.8-0.9,4.3-0.3
		c0.4,0.2,0.9,0.4,1.3,0.2c2.2-0.9,4,0.7,6,0.8c0.4,0,0.8,0.2,1.2,0.2c3.3-0.3,5.3,3.5,5.3,6.2c0,0.9-0.6,0.9-1.3,0.6
		c-1.2-0.5-2.5-1-3.8-1.5c-2.2-0.8-4.4-1.6-6.6-2.2c-0.6-0.2-1.4,0.2-2.1,0.4c-1.7,0.5-3.3,1-5,1.5c-0.1,0-0.2,0.1-0.3,0
		C384.1,84.8,382.5,85.8,381.1,87.4z"/>
</g>
</svg>
